<?xml version="1.0" encoding="utf-8"?>
<!-- Generator: Adobe Illustrator 24.1.1, SVG Export Plug-In . SVG Version: 6.00 Build 0)  -->
<svg version="1.1" id="Capa_1" xmlns="http://www.w3.org/2000/svg" xmlns:xlink="http://www.w3.org/1999/xlink" x="0px" y="0px"
	 viewBox="0 0 1325.6 803.2" style="enable-background:new 0 0 1325.6 803.2;" xml:space="preserve">
<style type="text/css">
	.st0{fill:#00272F;}
	.st1{fill:#005156;}
	.st2{fill:#008987;}
	.st3{fill:#008C89;}
	.st4{fill:#008684;}
	.st5{fill:#008482;}
	.st6{fill:#007F7E;}
	.st7{fill:#007B7A;}
	.st8{fill:#007676;}
	.st9{fill:#007D7C;}
	.st10{fill:#007071;}
	.st11{fill:#007474;}
	.st12{fill:#006567;}
	.st13{fill:#006A6B;}
	.st14{fill:#008986;}
	.st15{fill:#006C6D;}
	.st16{fill:#00565A;}
	.st17{fill:#005459;}
	.st18{fill:#005D60;}
	.st19{fill:#006163;}
	.st20{fill:#00595D;}
	.st21{fill:#006265;}
	.st22{fill:#008381;}
	.st23{fill:#00807E;}
	.st24{fill:#007C7B;}
	.st25{fill:#005C5F;}
	.st26{fill:#007272;}
	.st27{fill:#007878;}
	.st28{fill:#007575;}
	.st29{fill:#00696A;}
	.st30{fill:#006667;}
	.st31{fill:#006365;}
	.st32{fill:#005F61;}
	.st33{fill:#015B5E;}
	.st34{fill:#035358;}
	.st35{fill:#22434A;}
	.st36{fill:#416E72;}
	.st37{fill:#405D63;}
	.st38{fill:#457C80;}
	.st39{fill:#9F9295;}
	.st40{fill:#59686C;}
	.st41{fill:#5F5D63;}
	.st42{fill:#4F4249;}
	.st43{fill:#6F787D;}
	.st44{fill:#10272F;}
</style>
<path class="st0" d="M1295.7,406.1l-146.3-128.9c-1.5,0.3-2,1.8-2.8,2.9c-37.7,50-75.4,100-113.1,150.1
	c-29.8,39.5-59.6,79-89.4,118.5c-3.6,4.8-3.6,4.8-8.6,1.3c-41.9-29-83.7-58.1-125.5-87.1c-38.3-26.6-76.6-53.1-114.9-79.7
	c-45.7-31.7-91.4-63.5-137.1-95.2c-37.8-26.3-75.7-52.5-113.6-78.8c-29.5-20.5-59.1-41-88.6-61.6c-5.7-4-5.7-4-11,0.6
	c-33.3,28.9-66.5,57.7-99.8,86.6c-25.6,22.2-51.3,44.4-76.9,66.6c-29.7,25.8-59.4,51.7-89,77.5c-16.6,14.5-33.2,28.9-49.9,43.3
	c-0.7,0.5-1.4,1-2.2,1.4c-1.3,0.2-1.8-0.3-1.5-1.6c9.3-12.4,18.7-24.8,28.1-37.1c24.4-31.8,48.7-63.6,73.2-95.4
	c37.6-49,75.3-97.9,112.9-146.8c25.6-33.3,51.2-66.7,76.8-100.1c10.2-13.3,20.4-26.6,30.7-39.9c2.7-3.5,2.8-3.5,6.2-1.1l158.2,110.4
	c38.5,26.9,77,53.8,115.5,80.7c46.5,32.5,93,65,139.4,97.6c38.3,26.8,76.7,53.6,115.1,80.4c18.1,12.6,36.1,25.3,54.2,37.9
	c0.5,0.3,0.9,0.6,1.3,1c2,1.9,3.7,2,5.8-0.3c5.1-5.6,10.5-10.9,15.8-16.5c8.1-8.5,16.1-17.1,24.1-25.7c15.8-16.7,31.5-33.3,47.3-50
	c8-8.4,16-16.7,24-25.1c14.8-15.6,29.5-31.3,44.3-46.9c6.9-7.3,13.9-14.7,20.9-22c8.5-8.9,17-17.8,25.5-26.6
	c0.3-0.3,0.5-0.5,0.8-0.8c3.7-3.7,3.7-3.7,6.6,0.4c4,5.6,7.8,11.3,11.8,16.9c19.2,27.6,38.4,55.2,57.5,82.8
	c17.9,25.8,35.8,51.7,53.7,77.5c7.3,10.5,14.5,21.1,21.8,31.7C1297.1,405.9,1296.7,406.4,1295.7,406.1z"/>
<path class="st1" d="M1104.6,221.4c-5.9,6.4-11.7,12.8-17.6,19.1c-15.5,16.5-31,32.9-46.5,49.3c-7.3,7.8-14.7,15.4-22,23.2
	c-15.8,16.7-31.6,33.3-47.3,50c-7.7,8.1-15.5,16.2-23.2,24.3c-2.2,2.4-4.5,4.7-6.6,7.2s-3.8,1.7-6,0.2
	c-10.8-7.6-21.6-15.1-32.4-22.7l-104.3-73.2c-33.9-23.7-67.8-47.5-101.6-71.2c-36.8-25.8-73.7-51.6-110.5-77.4L476.9,73.3l-2.6-1.9
	c0.1-1.7,1-1.7,2.3-1c11.8,5.3,23.7,10.6,35.5,16c27.3,12.4,54.6,24.8,81.8,37.2c30.2,13.8,60.4,27.6,90.7,41.4
	c30.9,14.1,61.7,28.1,92.6,42.1c29.6,13.5,59.2,26.9,88.7,40.4c22.7,10.3,45.3,20.7,68,31c1.7,0.9,3.8,1,5.6,0.3
	c51.9-18.4,103.8-36.8,155.7-55.1c2.6-0.9,5.2-1.6,7.8-2.4C1103.5,220.9,1104.2,221,1104.6,221.4z"/>
<path class="st2" d="M146.2,755.9c-8.5-3.1-16.4-7.5-24.2-11.9c-19.1-10.6-36.9-23.4-53-38.1c-0.4-0.4-0.7-0.8-1-1.2
	c-3.7-4.4-5.7-9.2-2.4-14.7c1-1.7,0.1-2.6-1.1-3.6c-2.6-2.1-4.4-4.2,0.9-4.9c1.2-0.2,2.2-0.8,1.8-2.2c-2.7-10.2,1-20.2,1.1-30.4
	c0-3.4-0.3-6.8,1.1-10.1c0.8-1.9,0.3-4.1-1.3-5.5c-3.1-3.3-2.8-6.6-0.7-10.4c2.1-3.5,2.9-7.5,2.5-11.5c-0.3-2.5,0.1-5.1,1-7.5
	c1.2-3,1.4-6.3,0.7-9.5c-1.1-4.8,1.6-7.9,6.3-8.1l0,0c0.3,0.5,0.6,0.9,1.1,1.1l0,0c0.3,0.4,0.7,0.8,1.1,1.1l0,0
	c0.3,0.4,0.6,0.8,1,1.1v0.1l1.1,1l0,0c0.3,0.4,0.7,0.7,1.1,1c8.5,7.7,17,15.5,26,22.6c13.6,10.7,27.9,20.3,43,28.7
	c0.9,0.5,1.8,1.2,2.6,1.8c-1.4,7.6,0.8,15.5-2.1,23.1c-0.5,1.2,0.6,2.4,1.2,3.5c0.8,1.5,1.3,3.3,0.3,4.7c-2,2.7-1,6.3-2,8.4
	c-2.7,5.4,2.1,10.7-0.8,15.6c4.6,6.1-0.3,11.8-0.9,17.6c-0.8,8.1,1.4,16.3-0.7,24.3C148.7,746.8,149.8,752,146.2,755.9z"/>
<path class="st3" d="M77.9,586.4c-5.1,2.3-6.4,4.9-4.5,9.6c0.8,1.9,1.2,3.4-0.1,5.5c-2.2,3.7-2.4,7.9-1.9,12.1
	c0.3,2.3,0.3,4.2-1.2,6.1c-1.3,1.8-0.3,4.5-2.9,6.2c-1.2,0.8-0.8,4,1,5.8c3.4,3.3,3.9,5.5,2,9.3c-0.8,1.6-0.5,3-0.7,4.5
	c-0.5,4.1,1.7,8.4-1.1,12.2c-0.6,0.8-0.3,1.7,0,2.6c1.1,4.2-3,8.4,0.1,12.6c-1.5,1.7-1.4,3.1-0.1,5.2c2.1,3.3,1,4.9-3,5
	c-0.8,0-1.7-0.8-2.4,0c-0.1,0.7,0.6,0.9,0.9,1.3c1.3,1.5,4,1.4,4.7,3.3c0.7,2.1-2.4,2.3-2.9,4.1c-0.3,1.2-1.6,2.4-0.7,3.5
	c2,2.8,0.8,6.6,3,9.3c-10.2-9.2-19.4-19.5-27.4-30.6c-14-19.1-24.6-40.5-31.3-63.2c-3.8-13.3-6.5-27-7.9-40.8
	c-3.3-29.2-1-57.9,5.6-86.4c1.2-5.9,2.9-11.6,5-17.3c2.8,6.2,3.4,12.5,5.3,18.5c10.6,33.8,28.1,63.6,51,90.5
	C71.5,579.1,74.7,582.7,77.9,586.4z"/>
<path class="st4" d="M146.2,755.9c0.3-2.3,1.9-4.4,0.5-6.8c-0.2-0.5-0.2-1.1,0.1-1.5c3.1-7.4,3.2-15.1,1.9-22.9
	c-0.5-3.4,1.4-7,0.2-10.6c-0.3-0.8,0.9-1.8,1.6-2.6c3.1-3.3,3.2-5.2-0.1-8c-2-1.7-1.8-2.8-0.2-4.2c1.1-1,1.6-2.5,1.4-3.9
	c0-0.9-0.5-1.7-1.4-2c-3.1-1.3-3.3-1.6-1-3.8c2.5-2.4,3-4.8,1.2-7.7c-1.1-1.7-0.5-2.8,1-4.1c3.1-2.6,3.1-3.1,0.6-6.6
	c-1.2-1.3-1.4-3.3-0.6-4.8c1.6-3.9,2.2-8.2,1.5-12.4c-0.4-3-1.7-6.6,1.9-8.8l0,0c0.3,0.6,0.9,0.9,1.5,1c6.2,3,12.3,5.9,18.5,8.9
	c15.8,7.5,32.1,14,48.7,19.5c0.7,0.3,1.3,0.6,1.9,1c0.3,12.7-1.9,25.3-1.3,38c0,1.6-0.5,3.2-1.4,4.6c-0.7,1.3-1.3,2.9-0.6,4.2
	c2.6,4.5,1.5,8.6-0.9,12.8c-0.6,1.1-1.2,2.6-0.8,3.6c3.1,7.7-1.4,15.6,0.8,23.4c1.3,3.8,0.9,8-0.9,11.6c-1.4,2.6-0.6,5.7-1.6,8.4
	c-10.5-2.1-20.6-5.6-30.6-9c-13-4.4-25.9-9.1-38.4-14.9C148.7,757.4,147.2,757,146.2,755.9z"/>
<path class="st5" d="M219,781.9c-2.4-4-0.3-7.7,1.1-11.2c0.6-1.6,1.3-3,0.6-4.6c-1.3-3.2,0-6.9-2.1-9.9c-0.7-1,0.2-2,0.6-3
	c1.3-3.6,2.2-6.9,0.2-10.8c-1.6-3.1-0.5-6.7,1.4-9.8s2.9-6-0.1-9.2c-1.8-1.9-0.6-4.2,0.7-6c1.4-1.7,1.8-4,1-6
	c-1-3.8,0.1-7.8,0.4-11.5c0.3-4.2-0.3-8.7,1.7-12.7c0.2-0.4,0.3-1.3,0.1-1.5c-4.6-3.5-0.4-6.6,0.4-9.8c0-0.1,0.3-0.2,0.4-0.3l0,0
	c0.9,1.2,2.4,0.3,3.5,1c0.3-0.2,0.7-0.1,0.9,0.2c0.7,0.6,1.6,0.5,2.3,0.8h-0.1c1,1.7,3.1,0.1,4.3,1.3l1.1,0.2
	c0.7,0.5,1.6,0.3,2.3,0.8c10.6,2.3,20.9,5.8,31.5,7.8c10.3,2,20.5,4.3,30.8,6.5c0.7,0.2,1.4,0.5,2,0.8c-5.3,3.5-6.1,8.7-6.2,14.6
	c-0.2,13.9-0.7,27.8-2,41.6c-0.5,5.1-2.3,9.9,0,15.1c1.2,2.8-1.3,5.8-1.6,8.9c-0.6,7.4,0.9,14.7,0.7,22c-8.3-0.1-16.4-2.1-24.6-3.4
	c-12.5-1.9-24.8-4.9-37.1-7.6c-0.5-0.2-1-0.5-1.4-0.8c-1.2-1.4-3.1-0.1-4.3-1.1l0,0c-1-1.1-2.5-0.3-3.6-1l-1.9-0.3
	c-0.7-0.5-1.7-0.4-2.4-0.8l-0.4,0.1L219,781.9z"/>
<path class="st6" d="M295,797.2c-2.4-1.8-2.7-4.2-1.9-6.7c0.6-1.9,0.3-3.4-0.1-5.2c-1.3-5.2-0.8-10.7,1.2-15.7c1.2-2.8,0.5-5-1-7.1
	c-1.1-1.6-2.2-3.3-1-4.9c3.4-4.2,2.4-9.2,2.7-13.8c0.8-10.8,1.4-21.7,1.7-32.6c0.1-3.2-0.2-6.3,0.4-9.5c0.7-4.3,3-6.3,7.1-6.8
	c9.9,1,19.6,3.3,29.4,4.7c10.9,1.5,21.8,3.2,32.8,4.8c0.9,0.2,1.8,0.4,2.6,0.7c0.2,5.1,1.5,10.3-1.6,15.1c-0.2,0.3-0.2,0.7-0.1,1.1
	c1.4,9.8-1.7,19.6-0.4,29.4c0.8,6.4-1.1,12.9-1,19.4c0,3-0.7,6,0,9.1c1.3,5.4-2.5,9.9-2.6,15.2c0,2.8-0.5,5.5,0.3,8.3
	c-11,0.5-22-0.7-33-1.3c-10.1-0.6-20.1-2-30.2-3C298.5,798.3,296.7,797.9,295,797.2z"/>
<path class="st7" d="M419.2,710.2c9.2-0.3,18.3,0.9,27.4,1.4c11,0.6,21.9,0.8,32.9,1.1c1.9,0,3.9-0.4,5.8,0.6c2.4,1.5,2,3.9,2,6.3
	c0,5.3-0.9,10.8,1.4,15.9c0.4,0.8,0.7,1.9,0.3,2.6c-3.5,6-1.2,12.6-1.9,18.9c-0.7,5.8,1.1,11.6-1.1,17.7c-1,2.8-0.2,6.9-1,10.4
	c-0.8,3.8-1.6,7.9,1.5,11.3c-2.3,1.3-4.9,1.3-7.3,1.5c-18.2,1.6-36.5,2.9-54.7,4.4c-0.7,0.1-1.5-0.1-2-0.6c-1,0.4-2.1,0.5-3.2,0.4
	c-9.1,0.2-9,0.2-7.7-8.7c0.8-5-0.7-10-0.9-15c-0.3-7.5-0.2-15,2.8-22.1c0.4-0.6,0.6-1.3,0.6-2c-1.8-13.7,2.3-27.2,0.7-40.9
	C414.4,710.2,416.2,709.1,419.2,710.2z"/>
<path class="st8" d="M486.6,796.3c-2.3-0.1-3.9-0.8-3.6-3.5c0.5-3.7-0.5-7.5,1.6-11c1-1.6,1.2-4,0.3-5.2c-2.5-3.2-0.5-5,1.1-7.4
	c1.3-1.8,3.3-4.1-0.2-6.3c-1.1-0.7-1.4-2.5-1-4c0.5-1.7,1.8-3.3-0.1-4.8c-0.1-0.1-0.1-0.4,0-0.5c3.8-2.6,1.2-5.6,0.5-8.5
	c-0.3-1.6,0.2-3.3,1.4-4.5c1.7-2,2-4.2,0.2-6.3c-1.5-1.7-0.8-3.5-1-5.4c-0.6-5.3,1.1-10.6-0.5-15.8c8.9-0.7,17.8,0,26.6-0.2
	c15.2-0.3,30.4-0.7,45.6-1c0.9,0,1.8,0.1,2.7,0.3c1.1,1.2,1.6,2.9,1.4,4.5c-1.1,12.5-1.5,25.1-2.2,37.7c-0.2,2-0.7,3.9-1.5,5.8
	c-0.5,1.3-1.5,2.8-1.1,4.1c1.9,7.2-0.4,14.7,1.3,21.9c-8.5,2.2-17.3,3.3-26,4.6s-17.4,2.3-26.1,3.4c-5.3,0.7-10.7,1.2-16,1.8
	c-0.9,0.5-2.1,0.5-3,0L486.6,796.3z"/>
<path class="st1" d="M491.8,557.2c0,16.8,0,33.7,0,50.5c0,4.5,0,4.5-4.4,4.5c-4,0-8,0-12,0s-4.1-0.1-4.1-4.3c0-11.4,0-22.8,0-34.2
	c0-1.3,0-2.5,0-3.8c0-1.6-0.8-2.2-2.3-2.2c-3.1,0-6.1,0-9.2,0c-12.7,0-25.4,0-38,0c-3.9,0-3.9,0.1-3.9,3.8c0,12.1,0,24.3,0,36.4
	c0,4.2-0.1,4.2-4.1,4.3c-4.5,0-9,0-13.6,0c-2,0-3.1-0.6-2.9-2.8c0.1-1.1,0-2.2,0-3.3v-98.3c0.1-1.1,0.1-2.2,0-3.3
	c-0.3-2.6,1.2-3,3.3-2.9c4.7,0.1,9.4,0.2,14.1,0c2.8-0.1,3.3,1.1,3.3,3.5c-0.1,12,0,23.9,0,35.9c0,1.1,0,2.2,0,3.3
	c0.1,3.9,0.1,4,4.4,4c10.3,0,20.6,0,31,0c4.7,0,9.4,0,14.1,0c4,0,4.1-0.1,4.1-4.3c0-12,0-23.9,0-35.9c0-1.3,0-2.5,0-3.8
	c-0.1-1.7,0.5-2.7,2.5-2.7c5.3,0,10.5,0,15.8,0c1.6,0,2.3,0.6,2.3,2.2c0,1.3,0,2.5,0,3.8L491.8,557.2z"/>
<path class="st9" d="M419.2,710.2c-2.2,0.2-4,0.3-3,3.5s0,6.5,0.3,9.6c0.4,4.6-1.6,9.1-0.1,13.7c1,2.8,0.5,5.9-1.4,8.2
	c-1.9,2.4-2,4.5,0.3,6.7c2.1,2,1.6,3.8-0.3,5.5s-2.8,3.3-1.8,6.1s-0.8,5.6-1.2,8.4c-0.3,1.8-0.6,3.4,0,5.2c0.8,2.1,1,4.5,0.5,6.7
	c-0.4,2.3,1.2,5,1,7.6c-0.1,2-0.1,3.8-1.2,5.7c-1.6,2.8-0.6,4.3,2.7,4.5c2.5,0.2,5,0.1,7.6,0.2c-1,0.4-2,0.7-3.1,0.8
	c-18.1,0.2-36.2,1.4-54.3,0.3c-0.5,0-1.1-0.1-1.6-0.2c-3.7-2.5-3.8-2.5-2.2-6.2c0.8-1.9,1.6-3.8,0.9-5.7c-0.8-2.1-0.9-3.4,1.5-4.8
	c2-1.2,1.2-4.1,0.8-6.1c-0.8-3.6-1.5-7,0.5-10.5c0.7-1.2-0.8-2.4-0.7-3.6c0-2.9,0.4-5.7,1-8.5c1.3-4.5-0.2-8.8-0.5-13.2
	c-0.1-1.7-0.5-3.2,0.2-4.9c1.3-2.9,1.7-6.2,1.2-9.3c-0.6-4.7-2.1-10.1,1.9-14.4c0.9-1,0.9-2.5,0-3.5c-1.9-2.6-0.8-4.7,0.9-6.8
	c8.1,0.2,16.1,1.4,24.2,2.5c5.4,0.7,10.8,0.3,16.1,1.9c0.3,0.3,0.7,0.3,1,0.1c0,0,0,0,0,0C413.2,709.3,416.3,709,419.2,710.2z"/>
<path class="st10" d="M673.2,763.7c-5.2,2.6-11.1,2.7-16.7,4c-10.6,2.6-21.4,4.5-32.2,6.7c-0.7,0.1-1.4,0.1-2.2,0
	c-1.4,0.9-3.1-0.1-4.5,0.9l-2,0.2c-6.9,0.9-7.9,0-7.5-6.5c0.1-1.3,0.4-2.6,0-3.8c-3-8.5,0.6-16.7,1-25c0.4-8.6,0.7-17.2,1.7-25.7
	c0.2-1.8-0.2-3.6,1.3-5.1c1.4-0.5,2.9-0.7,4.4-0.4c0.3,0.5,0.7,0.5,1.1,0.1l1.8-0.2c1.8-0.8,3.8,0,5.7-0.6c7-1.3,14.2-1.4,21.3-2.2
	c8.5-0.9,17-1.6,25.6-2.3c0.3,0.3,0.8,0.2,1-0.1c0,0,0,0,0.1-0.1c2.4-1.3,5-0.6,7.5-0.9c-3,3.8-2.5,8.7-3.7,12.9
	c-2.2,7.9-0.8,15.7-1.5,23.5c-0.5,6.3,0.7,12.9-0.7,19.3C674.4,760.4,674.4,762.2,673.2,763.7z"/>
<path class="st11" d="M612.2,709.5c0.1,2-0.3,4,0.4,5.9c0.5,1,0.3,2.2-0.4,3c-0.3,0.4-0.9,1-0.8,1.4c0.9,4.2-0.5,8.3-0.7,12.4
	c-0.2,3.5,1.2,7.1-0.9,10.4c-0.1,0.2-0.3,0.4-0.2,0.5c3,4.1-0.9,7.3-1.5,10.9c-0.5,3.4,0.8,6.3,1.3,9.5c0.4,1.7,0.5,3.5,0.3,5.3
	c-0.9,6.2-0.7,6.5,5.8,6.8c-5.3,1.6-10.7,2.9-16.2,3.7c-12.2,2.1-24.2,5.2-36.5,6.5c-1.3,0.4-2.8-0.4-4,0.6l-0.5,0.2l-0.5-0.1
	c-2.4,0-3.9-0.7-2.8-3.6s-0.1-6.5,1.3-9.5c0.4-0.8-0.2-1.7-0.7-2.5c-2-3-1.7-6.2-0.2-9.2c1.8-3.7,2.1-7.5,2.3-11.5
	c0.5-10.7,0.5-21.5,2-32.2c0.1-1.8,0.2-3.6,0.1-5.4c0.1-0.2,0.4-0.3,0.7-0.2c0,0,0.1,0.1,0.1,0.1c0.9-0.5,1.9-0.5,2.8,0
	c0.6-0.3,1.3-0.5,2-0.7c15-0.4,30-1.3,44.9-2.5C611.2,709.3,611.7,709.4,612.2,709.5z"/>
<path class="st12" d="M800.2,735.2l-1.9,0.2c-3.8-0.6-5.9-3.2-4.3-7c3.3-7.7,0.9-15.6,2-23.4c0.7-5,0.9-10,1.8-15
	c0.1-1.5,1-2.8,2.4-3.3c9.1-2.2,18.4-2.9,27.6-4.4c14.9-2.4,29.8-5,44.6-7.5c1.6-0.3,3.2-0.3,4.8-0.4c1.3,1.2,1,2.7,0.7,4
	c-1.3,5.8-1.6,11.8-0.8,17.7c0.2,1.7-0.4,3.1-1,4.7c-3,8.2-2.1,10.9,5.4,16c-3.9,1.9-8.3,2.2-12.5,3.1c-16.8,3.7-33.7,7.4-50.5,11.3
	c-3.5,0.8-7,1.4-10.5,2.1c-1.4,0.9-3.1-0.1-4.5,0.9l-1.1,0.2C801.8,734.9,800.8,734.6,800.2,735.2z"/>
<path class="st13" d="M800.1,686.7c-1.3,3.5-1.8,7.2-1.4,10.9c0,0.4,0.3,0.9,0.2,1c-3.1,3.8,0.1,8.3-1.6,12.3
	c-0.4,1.2-0.6,2.5-0.3,3.7c0.8,4.8,1.4,9.3-1.8,13.8c-1.5,2.1,0.3,5,3.1,6.9c-9.1,2.2-18.2,4.4-27.2,6.5c-11,2.6-22.1,5.2-33.2,7.8
	c-2.3,0.6-4.6,0.9-7,0.9c-4.8-1.5-3.9-5.7-3.4-8.8c1.8-11.4,0.8-23,3-34.3c0.7-3.5-3-6.7-1-10.4c5.1-1.8,10.6-1.6,15.9-2.4
	C763.6,691.8,781.8,689.3,800.1,686.7z"/>
<path class="st1" d="M657.5,602.6c-5.2,4.7-10.5,8.5-17,9.9c-19,4.2-34.8-5.9-38.9-25c-0.7-3-1.1-6.1-1.2-9.1c0-13.4,0-26.8,0-40.2
	c0-3.8,0.1-3.8,3.9-3.9s7.6,0.2,11.4-0.1c2.8-0.2,3.8,0.9,3.7,3.7c-0.1,8.1-0.1,16.3,0,24.4c0,5.1-0.1,10.2,0.3,15.2
	c0.8,11.1,7,17.5,17.1,18.2c9.6,0.7,17.9-6,20.2-16.1c0.6-2.8,0.9-5.7,0.8-8.6c0-10.9,0-21.7,0-32.6c0-4.1-0.3-4.2,4.2-4.2
	c4,0,8,0.1,12,0c1.8,0,2.8,0.5,2.6,2.5c-0.1,0.9,0,1.8,0,2.7v67.3c0,6,0.4,5.5-5.7,5.5c-2.9,0-5.8-0.1-8.7,0c-2,0.1-2.9-0.8-3.1-2.8
	S659.2,605,657.5,602.6z"/>
<path class="st14" d="M66.9,546.4c-5.9-8.5-9.7-18.1-12.7-28c-3.1-9.8-4.7-20.1-4.7-30.4c0.1-14.6,3.1-28.4,10.7-40.9
	c4.6-7.7,10.8-13.6,19.6-16.2c3.6-1,3.9-0.9,4.9,2.7c3.7,13.4,7.9,26.6,12.8,39.6c-2.7,5.5-3.4,12-6.1,17.1c-3.9,7.5-5.4,16-10,22.9
	c-3.5,5.2-3.6,11.2-6.1,16.5C72.7,535.4,69,540.5,66.9,546.4z"/>
<path class="st1" d="M698.8,587.3c7.3,6.4,15.5,9.5,24.4,10.6c4.2,0.7,8.4-0.2,12-2.5c2.8-1.8,4.5-4.3,4-7.7c-0.5-3.3-3-4.7-5.9-5.7
	c-4.7-1.5-9.7-1.2-14.5-2c-4.8-0.7-9.6-2.1-14-4.1c-7.5-3.7-12.1-9.4-12.5-18.2c-0.4-9.3,3.4-16.1,11.4-20.6
	c9.6-5.4,20-5.9,30.6-4.5c7.7,1,14.8,4.3,20.4,9.7L744.1,555c-6.7-6.2-14.7-7.5-23.2-6.7c-2.4,0.1-4.6,0.9-6.7,2.1
	c-4.2,2.8-4.3,7.9-0.2,10.8c2.1,1.4,4.6,2.2,7.1,2.5c5.2,0.9,10.5,0.6,15.6,2c2.1,0.6,4.2,1,6.3,1.7c7.9,2.8,13.4,7.9,14.8,16.5
	c1.5,9.6-0.7,18-8.8,24.2c-4.3,3.3-9.5,5.4-14.9,6.1c-14,1.8-27.5,0.8-39.2-8.3c-0.6-0.5-1.1-0.9-1.7-1.4c-4.5-4.1-3.7-3.3-1.1-7.3
	C694.1,594.1,696.3,591,698.8,587.3z"/>
<path class="st15" d="M729.5,697.1c1,2.6,0.9,5.7,2.8,8c0.4,0.6,0.5,1.3,0.3,2c-2.9,6.7-0.6,14.1-2.9,20.9c-0.1,0.3-0.2,0.7-0.1,1.1
	c1.1,4.6,0.3,9-0.9,13.6c-0.6,2.8,0.2,5.8,2.2,7.9c-4.5,2.7-9.7,2.6-14.5,3.8c-12.5,3.3-25.2,5.9-37.8,8.7c-1.8,0.3-3.6,0.5-5.4,0.5
	c-0.9-4.9,1.2-9.5,1.1-14.4c0-2.1,0.2-4.3-0.7-6.3c-0.6-1.1-0.7-2.5-0.3-3.7c2.1-4.5,0.6-9.1,0.3-13.7c0-0.7-0.6-1.7-0.3-2
	c3.9-5.3,1.6-11.7,2.9-17.5c0.7-2.9,3.2-1.8,4.4-3.2c4.6-1.6,9.6-1.3,14.3-2c10.4-1.5,21-2.3,31.4-3.5c0.7,0.5,1.6,0.4,2.1-0.2
	C728.7,697,729.1,696.9,729.5,697.1z"/>
<path class="st1" d="M279.5,461.9c-1.1,1-2.1,1.8-3,2.6c-9.4,7.6-20,9.2-31.1,5c-10.9-4.1-15.8-13.2-17.7-24.2
	c-0.6-3.6-0.9-7.2-0.8-10.8c0.1-10.5,0-21,0-31.5c0-4.3,0.1-4.3,4.1-4.3c3.3,0,6.5,0.1,9.8-0.1c2.8-0.2,3.9,0.8,3.8,3.7
	c-0.1,6.3-0.1,12.6,0,19c0.1,6-0.3,11.9,0.3,17.9c0.9,9,6,14.9,13.6,15.9c9.1,1.3,16.4-3,19.7-11.6c1.2-3.2,1.7-6.7,1.6-10.1
	c0-9.9,0-19.9,0-29.8c0-4.8,0-4.8,4.6-4.9c3.1,0,6.2,0.2,9.2,0s3.6,1.1,3.6,3.8c-0.1,21.5-0.1,43,0,64.5c0,2.7-0.9,3.6-3.5,3.3
	c-0.9-0.1-1.8,0-2.7,0c-2.9,0-6,0.6-8.6-0.3C279.2,468.8,282,464.6,279.5,461.9z"/>
<path class="st1" d="M432.9,406.4c8.4-7.3,17.4-9.7,27.4-8.1c13.5,2.1,23,12.5,24.8,27.1c0.8,6.5,0.4,13,0.5,19.5
	c0.1,7.2-0.1,14.5,0,21.7c0,2.6-0.4,4.1-3.5,3.8c-3.4-0.3-6.9,0-10.3-0.1c-3.7-0.1-3.8-0.1-3.8-4c0-10.3,0-20.6,0-31
	c0.1-2.9-0.1-5.8-0.7-8.6c-2-7.8-7.7-12.5-15.5-12.8c-7.9-0.5-15.1,4.4-17.6,11.8c-0.8,2.8-1.2,5.7-1.2,8.6c0.1,10.7,0.1,21.4,0,32
	c0,3.9-0.1,3.9-3.8,3.9c-3.4,0-6.9-0.1-10.3,0.1c-2.7,0.2-3.3-1-3.3-3.5c0.1-11.2,0-22.5,0-33.7c0-10.3,0.1-20.6-0.1-31
	c0-2.9,0.9-3.9,3.7-3.7c3.1,0.2,6.1,0.1,9.2,0c3.6-0.1,4.4-0.1,4.1,4.3C432.7,404,432.8,405.2,432.9,406.4z"/>
<path class="st1" d="M317.9,447.8c5.2,4.4,11.4,7.4,18,8.8c3,0.7,6.1,0.9,9.2,0.5c3.1-0.2,6-1.7,8-4.1c2.8-3.4,1.9-7.5-2-9.5
	c-2.5-1.1-5.2-1.7-7.9-1.8c-7.2-0.6-14.4-1.5-20.9-5c-5.4-2.9-9.1-7-10.3-13.2c-1.6-8.2,0.8-15,7.4-20.2c3.3-2.5,7.2-4.3,11.3-5.1
	c10.1-2.2,20.1-2.1,29.7,2.3c3.2,1.3,6.1,3.4,8.4,6c-2.6,3.1-5.3,6.1-7.7,9.3c-1.5,2-2.6,1.6-4.4,0.3c-6.6-4.7-14-5.6-21.7-3.6
	c-3.9,1-6,3.2-6.1,6s2.1,5.6,6,6.8c3.1,0.9,6.4,1.4,9.6,1.5c4.9,0.3,9.7,1.3,14.3,2.9c16.8,5.9,16.7,27.2,6.2,35.9
	c-3.7,3.2-8.2,5.4-13,6.2c-13.6,2.2-26.7,1.6-38.2-7.3c-5-3.9-5-3.9-1.4-9.2c1.4-2.1,2.9-4.2,4.3-6.2
	C317.1,448.6,317.5,448.2,317.9,447.8z"/>
<path class="st1" d="M589.6,447.9c5.3,4.6,11.7,7.6,18.6,8.9c3.9,0.8,7.9,1,11.8-0.5c2.1-0.7,3.9-2,5.1-3.8c2.2-3.3,1.3-6.9-2.1-8.8
	c-2.4-1.2-5.1-1.8-7.8-1.9c-6.7-0.6-13.3-1.3-19.5-4.1s-10.8-7.2-12.1-14.2c-1.5-8.2,0.9-15,7.5-20.1c3.5-2.7,7.5-4.5,11.8-5.2
	c12.5-2.3,24.5-1.8,35.2,6.2c0.7,0.5,1.3,1.2,2.3,2.1c-1.4,1.7-2.6,3.4-4,5c-1.6,1.9-3,4.5-5,5.6c-2.6,1.4-4.1-2.1-6.4-3
	c-6.3-2.5-12.6-3.2-19.1-1.3c-3.5,1-5.5,3.3-5.4,6c0.1,3.3,2.2,5.2,5.2,6.3c3.3,1.1,6.7,1.7,10.1,1.7c4.9,0.2,9.7,1.2,14.3,2.8
	c7.4,2.7,12.3,7.7,13.5,15.6c1.3,8.4-1,15.8-7.8,21.3c-2.5,2.1-5.4,3.6-8.6,4.5c-11.5,3-22.9,2.9-34-1.7c-1.8-0.8-3.6-1.8-5.2-2.9
	c-7.9-5.2-7.9-5.3-2.6-12.9C586.5,451.5,587.4,449.5,589.6,447.9z"/>
<path class="st1" d="M651.4,460c2.2-3.3,4.5-6.4,6.5-9.6c1.3-2.1,2.3-2.6,4.6-0.8c6.5,5,14.4,7.7,22.6,7.7c3.1,0.1,6.2-0.8,8.6-2.7
	c2.1-1.6,3.5-3.7,3.1-6.5s-2.4-4.3-4.9-5.2c-4.3-1.5-8.9-1.3-13.4-1.9c-5-0.6-9.9-2.1-14.4-4.5c-13.4-7.4-14.1-25.5-1.3-34
	c3.1-2.1,6.7-3.6,10.4-4.4c12.5-2.3,24.5-1.9,35.2,6c1.1,0.6,1.9,1.5,2.3,2.7c-2.4,2.9-5,5.8-7.4,8.9c-1.4,1.8-2.5,1.9-4.4,0.5
	c-6.7-4.9-14.3-5.6-22.2-3.6c-2.8,0.7-5,2.3-5.6,5.3c-0.6,2.6,1.2,5.3,4.3,6.8c3.3,1.5,7,1.8,10.6,2c5.1,0.3,10.1,1.3,14.9,2.9
	c17,5.9,16.9,27.6,6,36.3c-3.6,3-8,5.1-12.6,5.9c-15.2,2.5-29.6,1.3-41.5-10.1C652.4,461.3,652.1,460.8,651.4,460z"/>
<path class="st16" d="M1144.5,626.9c10.9-2.6,22-3.5,33.1-4.9c11.6-1.5,23.2-2.7,34.8-3.6c2-0.2,3.9-0.2,5.9-0.2
	c-0.5,2.5-3.4,2.8-4.3,5.2c-1.1,2.8-4,5-1.4,8.6c0.9,1.3-0.2,3.1-0.7,4.7c-0.5,1.4-1.5,2.9-0.7,4.1c2.9,4.3,0,6.9-2.4,9.8
	c-9.6,2.1-19.3,4.2-29,5.8c-9.9,1.7-19.8,3.7-29.7,5.6c-1.8,0.3-3.6,0.3-5.4,0.5c-1.9,0.6-3.9,1.2-5.3-0.9s1.1-2.6,1.6-3.9
	c2-5.9,2.6-12,0.7-18C1139.9,634.6,1141.2,630.7,1144.5,626.9z"/>
<path class="st17" d="M1208.8,650.7c-0.7-0.3-2.1-0.1-1.3-1.5c0.3-0.5,1.2-0.8,1.8-1.2c2-1.4,3.1-2.8,1-5.2
	c-1.5-1.4-1.6-3.7-0.3-5.3c1.6-2.5,3.1-5.5-0.2-8.1c-0.9-0.7-0.6-1.7,0.2-2.3c1.8-1.5,3.1-3.6,3.6-5.8c0.6-2.6,3.4-1.6,4.7-2.9
	l1.3-0.1c0.6,0.4,1.4,0.4,2,0.1c14.6-1.6,29.1-1.1,43.6-0.1c19.5,1.4,38.7,4.7,57,11.9c0.8,0.3,1.7,0.7,2.5,1.1
	c0.3,0.1,0.5,0.5,0.9,1c-33.4,4.4-66.4,10.6-99.4,16.1c-1.4,0.2-2.9,0.2-4.3,0.3c-1.4,0.9-3.1-0.1-4.5,0.9l-2,0.2
	c-1.4,0.9-3.1-0.1-4.5,0.8L1208.8,650.7z"/>
<path class="st18" d="M978.3,657.2c7.1-1.9,14.5-2.6,21.7-4c10.5-2,21-4.6,31.7-5.7c0.7,0.4,1.5,0.3,2-0.3c0.1-0.5,0.6-0.8,1.1-0.7
	c0,0,0.1,0,0.1,0c0.3,0.2,0.7,0.1,1-0.2l2.1-0.3c2.3,3.2,0,6.6-0.3,9.5c-0.5,5.7-1.2,11.1,0,16.7c0.1,0.3,0.2,0.8,0,1
	c-3.5,4.5,0.4,6.9,2.6,9.8c-0.7,1.1-1.9,0.9-2.9,1.1c-13.4,2.6-26.8,5.1-40.2,8c-5.5,1.2-10.8,2.7-16.4,2.9
	c-3.6-0.6-6.4-5.4-4.6-9.1c1.3-2.6,0.2-5.9,2.6-8.1c-4.4-1.8-1.2-5.9-2.4-8.7s0.1-6.4-0.1-9.7C976.4,658.4,977.3,657.7,978.3,657.2z
	"/>
<path class="st19" d="M978.3,657.2c-0.4,1-1.3,1.9-0.9,3c0.8,1.8,0.8,3.9,0,5.7c-0.6,1.4-0.4,2.9,0.5,4.1c1.1,1.3,0.8,2.6,0.2,3.9
	c-0.3,0.6-0.6,1.8-0.4,1.9c3.1,1.7,0,4.7,1.4,6.8c0.5,0.8,0.4,1.9-0.3,2.5c-4.4,3.5,0.5,6.4,0.6,9.6c0,0.2,1,0.3,1.5,0.5
	c-0.7,0.5-1.5,0.9-2.4,1.2c-15.5,3.2-31,6.5-46.5,9.6c-0.4,0-0.7,0-1.1,0c-0.8,0.4-1.7,0.3-2.4,0.8l-2,0.2c-4,1.2-5.7,0.3-5.1-4.3
	c0.6-4.4-2.3-8.5-1.1-13.2c0.7-2.9,0.3-6.1,1.8-8.9c0.8-1.6,0.3-3.1-0.1-4.7c-0.8-3.3-1.4-6.8,2.1-9.2c9.8-2.5,19.9-3.7,29.9-5.3
	c7-1.2,13.7-3.2,20.7-4.1C975.8,657.4,977.1,657.3,978.3,657.2z"/>
<path class="st4" d="M66.9,546.4c-0.4-3.4,0.8-6.9,3.2-9.4c1.7-1.9,2.9-4.2,3.3-6.7c0.2-1.1,0.2-2.2,1.1-3c1.8-1.4,1.5-3.2,1.6-5.2
	c0.1-2.5,1-4.9,2.5-6.9c3.7-4.9,5.4-10.8,6.7-16.7c0.3-1.5,0.5-3.3,1.6-3.9c4.8-2.7,3.7-7.7,5-11.8c1.2-3.7,2.3-7.4,5.7-9.7v0.1
	c0.3,0.8,0.2,1.8,1,2.3v-0.1c0.4,0.7,0.3,1.7,0.9,2.3v0.1c0.3,0.2,0.6,0.5,0.6,0.9c0.5,0.5,0.7,1.2,0.6,1.9c0.4,0.8,0.2,1.9,1.1,2.5
	l-0.1-0.1c0.4,0.7,0.2,1.8,1.2,2.2l-0.1-0.1c0.2,0.4,0.4,0.9,0.6,1.3l11.8,20.8c-5.9,11-9.6,22.9-14.6,34.2c-3.1,7.2-7.3,14-9,21.8
	c-0.8,3.6-1.9,7.4-5.6,9.5C78.5,565,72,556.1,66.9,546.4z"/>
<path class="st20" d="M1144.5,626.9c0,0.4,0.1,0.8,0,1.1c-3.9,5.9-1.3,11.9-0.2,17.8c0.4,2.1,0.3,4.3-0.4,6.4
	c-0.6,2-2.1,3.9-0.9,6.2c0.4,0.8-0.1,1.3-1,1.2s-2-0.5-2,0.8c0,1,0.6,1.8,1.6,2c1.1,0.2,2.2,0.3,3.2,0.3c-5.4,1.2-10.8,2.5-16.3,3.6
	c-12.9,2.6-25.8,5.1-38.7,7.7c-1.9,0.5-3.9,0.7-5.9,0.6c-1.6,0.5-2-0.7-2-1.7c0.4-3.8-0.8-7.5-0.5-11.3c0.3-3.2,1.4-6.3-0.5-9.4
	c-0.7-1.4-0.2-3.1,1-4c3.5-2.9,3.7-6.5,2.9-10.5c5.7-2.6,11.8-2.8,17.8-3.8C1116.6,631.4,1130.6,629.2,1144.5,626.9z"/>
<path class="st21" d="M924,667c-0.8,3.5-3.1,7,0.5,10.3c0.7,0.7,0.7,1.8,0,2.5c0,0,0,0,0,0c-2.8,3.1-2.8,6.9-2.7,10.7
	c0.1,1.3-0.1,2.5-0.6,3.7c-0.6,1-0.4,2.2,0.5,2.9c2.2,1.7,1.5,3.8,1.2,5.9c-0.6,3.6-0.6,3.6,3.5,4.1c-9.5,2.5-19.1,4.6-28.8,6.3
	c-4.2,0.7-8.2,2.9-12.6,2.4c-1,0.8-2.4,0.1-3.3,0.9l-0.2,0.1c-6.6-0.5-9.4-3.7-8.3-9.7c0.5-2.8-0.9-6.3,2.5-8.3
	c0.6-0.4,0.4-1.3,0.2-2c-2-7.6-0.2-15,1.3-22.4h0.1c1-0.7,2.2-0.2,3.2-0.7C894.9,670.7,909.4,668.4,924,667z"/>
<path class="st22" d="M86.3,572.7c2-4.4,4.5-8.5,5-13.6c0.3-3,2.8-5.7,4.6-8.5c1-1.3,1.5-2.9,1.5-4.5c-0.2-1.3,0.1-2.6,0.8-3.6
	c3-3.3,3.7-7.7,5.6-11.5c1.7-3.2,2.9-6.5,3.7-10c1.2-5.3,4.3-9.8,7.9-13.9c0.3,0.1,0.5,0.5,0.4,0.9c0.5,0.7,0.3,1.9,1.4,2.2
	l17.1,23.9c-0.2,3.9-2.1,7.5-3.9,10.6c-5.8,9.9-7.7,21.3-13.3,31.3c-3.3,5.9-3.4,13.3-6.9,19.3c-3.4-1.1-5.4-4-7.9-6.3
	C96.8,583.9,90.9,578.9,86.3,572.7z"/>
<path class="st23" d="M110.3,595.4c-0.4-1.2-0.4-2.5,0.1-3.6c1.8-3.7,3-7.7,3.8-11.7c0.7-4.7,3.7-8.5,5.7-12.7
	c2.4-5.2,3.1-11.1,5.8-16.1c2.8-5.3,4.6-11.1,7.9-16.2c0.2-0.3,0.5-0.5,0.8-0.7l0,0c0.2,0.6,0.7,0.8,1.1,1.2l0,0
	c0.3,0.4,0.6,0.8,0.9,1.1l22,22.7c-3.2,3.1-4.6,7.3-6.2,11.3c-5.5,14.5-11.8,28.7-16.9,43.3c-7-3.3-12.9-8.4-19.1-13
	C114.1,599.2,111.6,597.9,110.3,595.4z"/>
<path class="st24" d="M135.3,613.7c-0.8-1.4-0.8-3.1,0-4.6c2.4-5.4,4.4-11,6.6-16.5c4-9.9,8-19.9,11.8-29.8c0.9-2.2,1.9-3.9,4.5-3.7
	c0.5,0,1,0.3,1,0.9c0,0,0,0.1,0,0.1c0.2,0.6,0.6,1,1.2,1.2l-0.1-0.1c0.3,0.9,1.4,0.6,1.9,1.3l0.2,0.2c0.4,0.1,0.7,0.5,0.9,0.9
	l0.3,0.2c0.4,0.2,0.7,0.5,1.1,0.9h0.1c0.3,0.4,0.7,0.7,1,1l0.1,0c0.3,0.4,0.7,0.8,1.2,1c5.5,3.8,11,7.7,16.2,12
	c-3.4,6.4-5.6,13.2-8.2,19.9c-3,7.5-7,14.5-9.4,22.3c-0.9,3-0.6,6.4-2.3,9.2c-7-2.4-12.8-6.9-19.2-10.4
	C141,618,137.8,616.4,135.3,613.7z"/>
<path class="st25" d="M1084.8,637.6c0.7,2,3.1,3.6,2.8,5.7s-2.6,3.3-4.2,4.8c-1.8,1.8-2.6,3.5-0.4,5.5c1.2,0.9,1.5,2.5,0.6,3.7
	c0,0,0,0.1-0.1,0.1c-1.2,2-1.1,4.2-0.8,6.3c0.4,3.2,1.3,6.3,0.2,9.5c-0.1,0.3,0.6,0.8,1,1.2c-4,1.7-8.3,2-12.5,2.8
	c-10.3,2-20.5,4.8-31,5.9c-1.2-0.1-1.8-1-2.7-1.6c-4-2.7-4.1-2.7-1.5-6.9c0.8-1.2,1.1-2.3-0.1-3.4c-1-0.8-1.4-2.2-1-3.4
	c1.1-2.9,1.1-6.1-0.1-9c-0.5-1,0-2.3,1-2.8c0.4-0.2,1.3-0.6,1-0.9c-4.2-3.1,0.5-4.8,1-7.1c0.1-0.7,0.1-1.4,0.1-2.2
	c4.1-1.6,8.5-1.7,12.7-2.5c9.9-1.9,19.9-3.8,29.8-5.6C1081.9,637.7,1083.4,637.7,1084.8,637.6z"/>
<path class="st26" d="M226.7,603.5l1,0.5c0.6,0.6,1.5,0.3,2.1,0.9c9.6,3.8,19.1,7.6,28.4,11.9c-3.6,6-6.8,12.1-8.3,19
	c-1.1,4.7-3.6,9-5.8,13.3c-2,3.8-3.4,7.8-3.4,12.3c-10.1-2.3-19.9-5.5-29.4-9.7c-3.8-1-3.2-3.7-2.5-6.5c1.4-5.6,4.1-10.8,6.3-16.2
	C218.6,620.4,222.1,611.7,226.7,603.5z"/>
<path class="st27" d="M163.3,630.2c-0.9-2.5-0.4-4.8,0.3-7.3c2.2-8.6,7-16.2,10-24.5c1.9-5.2,4.7-10.1,6.1-15.6c0.5-2,1.1-3.9,3.7-4
	l0,0c0.3,0.6,0.8,0.9,1.5,1c0.3-0.1,0.6,0.1,0.7,0.4c0,0,0,0,0,0c0.4,0.2,0.7,0.5,1,0.8l0.1,0.1c0.3,0.4,0.7,0.7,1.2,0.9l-0.1-0.1
	c0.5,0.9,1.6,0.7,2.3,1.1l18.3,11c-6.3,11.1-10.8,22.9-14.7,35c-1.4,4.6-3.5,9-6.2,13c-7.1-2.6-14-6-20.4-10
	c-0.5-0.7-1.5-0.5-2.1-1.1l0,0c-0.4-0.4-0.7-0.9-1.4-0.8L163.3,630.2z"/>
<path class="st15" d="M240.7,661.3c-1.1-1.1-2.1-2-1.4-4.1c1.6-4.4,3.4-8.7,5.5-12.8c1.9-4.4,3.6-8.9,4.9-13.5
	c1.7-5,2.6-11.3,8.5-14.2c7.4,1.7,14.2,5,21.4,7.1c2.4,0.7,4.7,1.8,7,2.6c-5.2,6.8-8.1,14.7-11.2,22.5c-2.5,6.5-5.7,12.8-6.5,19.9
	C259.4,667.1,249.9,664.5,240.7,661.3z"/>
<path class="st1" d="M383,434.4c0-10.5,0-21,0-31.5c0-4.3,0.1-4.3,4.5-4.4c3.3,0,6.5,0.2,9.8,0c2.7-0.2,3.4,0.9,3.3,3.5
	c-0.1,10.9,0,21.7,0,32.6c0,10.7,0,21.3,0,32c0,3.7-0.1,3.7-3.9,3.8c-3.4,0-6.9-0.1-10.3,0c-2.6,0.1-3.4-0.8-3.4-3.4
	C383.1,456.1,383,445.3,383,434.4z"/>
<path class="st28" d="M187.3,642.1c-0.5-1.4-0.3-2.9,0.6-4.1c3.9-6,5.3-12.8,7.4-19.5c1.6-4.9,4.1-9.6,6.2-14.3c0.9-2,2.1-3.7,2.4-6
	c0.2-2.3,2-4,4.3-4.1c6.3,2.9,12.6,6,18.6,9.5c-0.1,2,0,4-1.2,5.7c-3.5,5.2-5.4,11.2-7.7,17c-2.7,6.7-6.1,13.2-7.9,20.4
	c-0.6,1.8,0,3.9,1.5,5.1c-6.1-1.5-11.7-4.2-17.4-6.7c-0.6-0.5-1.5-0.3-2-1l-0.1-0.1c-0.6-0.6-1.6-0.4-2.2-1l0,0
	c-0.6-0.7-1.6-0.6-2.3-0.9L187.3,642.1z"/>
<path class="st29" d="M268.9,668.9c-2-3.4-0.6-7.1,0.9-9.7c2.8-4.9,3.8-10.4,6-15.4c1.9-4.3,5.3-8,5.6-13.2c0.1-2.1,2.6-3.8,5.2-4.1
	c0.3-0.1,0.7,0,0.9,0.3c0.6,0.5,1.5,0.3,2.1,0.9c6.2,1.6,11.7,4.8,17.4,7.6c2.2,2.9,0.5,5.6-0.8,8c-5.3,9.9-8.5,20.5-11.3,31.2
	c-7-0.8-13.9-2.3-20.6-4.5c-1.1-0.8-2.6-0.3-3.8-0.9C270,669.4,269.4,669.3,268.9,668.9z"/>
<path class="st30" d="M295,674.5c-0.5-1.3-1.3-2.5-0.7-4.1c3.3-8.5,4.9-17.6,9.8-25.5c1.7-2.8,3.4-6,2.9-9.6l1.1,0.3
	c0.4,0.3,0.8,0.6,1.3,0.7c6.4,1.8,12.5,4.3,18.3,7.5c0.1,0.3,0.4,0.6,0.7,0.5c0.1,0,0.2,0,0.3-0.1c0.8-0.1,1.7,0.3,2.1,1
	c-0.9,8.5-5.8,15.4-8.5,23.2c-1.2,3.5-2,7.3-4.4,10.4C310.1,678,302.5,676.6,295,674.5z"/>
<path class="st31" d="M317.9,678.7c-0.1-0.9-0.1-1.8,0.1-2.7c3.8-10.5,8-20.8,12.8-30.9c8,3.2,15.5,7.5,23,11.5
	c1.6,1.7,2.4,3.5,1.3,5.8c-3.3,6.6-4.9,13.9-7.9,20.7C337.3,682.5,327.5,681,317.9,678.7z"/>
<path class="st32" d="M347.2,683.2c-1-1.6-0.4-3.2,0.2-4.6c2.3-5.4,3.4-11.2,6.4-16.3c1.2-2,0.6-3.7,0-5.6
	c10.4,4.5,21.3,8.1,31.4,13.4c2.2,1.7,2.1,3.8,1.1,6.2c-1.4,3.6-3.5,7.1-3.3,11.2C371,686.9,359,685.5,347.2,683.2z"/>
<path class="st33" d="M383,687.4c-1-1.1-2.5-1.9-1.3-4c1.3-2.3,1.9-5,3.3-7.3c1.1-1.9,1.2-4.2,0.3-6.1l2.3,0.5
	c0.4,0.1,0.7,0.3,1.1,0.5l2.2,0.5c0.4,0.2,0.8,0.3,1.1,0.6c15.5,4.8,30.7,10.3,44.9,19.2c-1.1,1.1-2.4,0.6-3.5,0.5
	c-13.1-0.9-26.3-1.4-39.4-3.3c-3.2-1.5-6.8,0.3-10-1l-0.5,0.1L383,687.4z"/>
<path class="st34" d="M391.4,386.4c-8.5,0-8.5,0-8.5-8.5s0-8.5,8.5-8.5c9,0,9,0,9,9c0,8,0,8-7.9,8L391.4,386.4z"/>
<path class="st35" d="M25.4,422l1.5,1.6c-1.1,1.8-2.7,3.3-4.6,4.3l-0.3-0.6c0.2-0.4,0.3-0.8,0.4-1.2C22.6,424.3,24.3,423.4,25.4,422
	z"/>
<path class="st32" d="M383.9,687.6c3.3,0.2,6.8-1.1,10,1C390.6,688.6,387.2,688.8,383.9,687.6z"/>
<path class="st36" d="M476.5,70.4c-0.8,0.2-1.7,0.1-2.3,1c-1.2-0.4-2.3-1.2-3.2-2.1c-0.4-0.3-0.5-0.8-0.2-1.2
	c0.1-0.1,0.1-0.2,0.2-0.2C473.1,68.2,475,69.1,476.5,70.4z"/>
<path class="st11" d="M625.2,708.4c-1.8,1.4-3.8,0.6-5.7,0.6C621.2,707.7,623.2,708.4,625.2,708.4z"/>
<path class="st37" d="M1295.7,406.1l1-1.1c1.2,0.7,2,2,2,3.4l0.1-0.1C1297.5,408,1296.3,407.2,1295.7,406.1z"/>
<path class="st16" d="M1217.4,649.3c1.3-1.4,2.9-0.8,4.5-0.9C1220.5,649.3,1218.9,649.6,1217.4,649.3z"/>
<path class="st16" d="M1210.8,650.4c1.3-1.4,3-0.8,4.5-0.8C1214,650.4,1212.4,650.7,1210.8,650.4z"/>
<path class="st13" d="M803.5,734.1c1.3-1.4,3-0.9,4.5-0.9C806.6,734,805,734.4,803.5,734.1z"/>
<path class="st4" d="M236.4,678.8c-1.5-0.2-3.3,0.7-4.3-1.3C233.6,677.8,235.2,677.6,236.4,678.8z"/>
<path class="st8" d="M559,786.3c1.2-1.4,2.6-1.2,4-0.6C561.8,786.3,560.4,786.5,559,786.3z"/>
<path class="st4" d="M227.6,784.3c1.5,0.1,3.3-0.7,4.3,1.1C230.5,785.3,228.9,785.4,227.6,784.3z"/>
<path class="st11" d="M617.7,775.4c1.3-1.4,3-0.8,4.5-0.9C620.9,775.3,619.3,775.6,617.7,775.4z"/>
<path class="st12" d="M880.5,673.6c-0.9,1-2.1,0.8-3.2,0.7C878.2,673.6,879.4,673.3,880.5,673.6z"/>
<path class="st38" d="M471.1,67.9c0,0.5,0,1,0,1.4c-1.1-0.4-2.2-0.8-2.5-2.2c0.4-0.4,1.1-0.4,1.5,0c0,0,0,0,0,0L471.1,67.9z"/>
<path class="st4" d="M229,676.5c-1.3,0.1-2.6,0.4-3.5-1C226.8,675.3,228.1,675.7,229,676.5z"/>
<path class="st15" d="M270.6,669.2c1.3-0.1,2.7-0.4,3.8,0.9C273.1,670.4,271.7,670,270.6,669.2z"/>
<path class="st4" d="M224.1,783.3c1.3-0.1,2.7-0.4,3.6,1C226.4,784.5,225.1,784.1,224.1,783.3z"/>
<path class="st12" d="M881.7,716.7c0.9-1.2,2.1-1,3.3-0.9C884,716.5,882.9,716.8,881.7,716.7z"/>
<path class="st39" d="M470.1,67.1h-1.5c-0.5-0.1-0.7-0.5-0.3-0.7C469,66.1,469.6,66.6,470.1,67.1z"/>
<path class="st40" d="M1104.6,221.4l-1.7-0.2c0.5-0.9,1.3-1.2,2.1-0.5C1105.4,221,1105.1,221.4,1104.6,221.4z"/>
<path class="st14" d="M101.9,483.2c-1.2-0.5-1.2-1.4-1.1-2.5C101.6,481.3,102,482.2,101.9,483.2z"/>
<path class="st21" d="M928.4,706.9c0.6-0.7,1.5-1,2.4-0.8C930.3,706.9,929.3,707.2,928.4,706.9z"/>
<path class="st14" d="M99.4,477.8c-0.8-0.5-1.1-1.4-0.9-2.3C99.2,476.1,99.6,477,99.4,477.8z"/>
<path class="st14" d="M98.6,475.6c-1.1-0.4-1.2-1.3-1-2.3C98.3,473.8,98.7,474.7,98.6,475.6z"/>
<path class="st16" d="M1221.6,618.3c-0.7,0.9-1.4,0.9-2-0.1L1221.6,618.3z"/>
<path class="st27" d="M189.7,643c0.9-0.1,1.7,0.3,2.2,1C191,644.1,190.1,643.7,189.7,643z"/>
<path class="st15" d="M289.6,627.7c-0.8,0.2-1.7-0.2-2.1-0.9C288.3,626.7,289.1,627,289.6,627.7z"/>
<path class="st41" d="M21.3,428.9c-0.2,0.8-0.8,1.3-1.5,0.9s-0.2-0.8,0.3-1c0.3-0.3,0.7-0.3,1-0.1C21.2,428.8,21.2,428.9,21.3,428.9
	z"/>
<path class="st8" d="M563.7,712.3h-2.8c0.7-0.8,1.9-0.8,2.6-0.2C563.6,712.2,563.7,712.3,563.7,712.3z"/>
<path class="st24" d="M164.7,631c0.9-0.1,1.7,0.3,2.1,1.1C166,632.2,165.2,631.7,164.7,631z"/>
<path class="st42" d="M21.3,428.9l-1.2,0c0.1-0.6,0.3-1,1-1.1c0.3-0.2,0.6-0.3,0.9-0.4l0.2,0.5C22.1,428.4,21.8,428.8,21.3,428.9z"
	/>
<path class="st24" d="M189.9,583.1c-1,0.1-1.9,0-2.3-1.1C188.5,581.9,189.4,582.4,189.9,583.1z"/>
<path class="st27" d="M187.3,642.1c0.9-0.3,1.9,0.1,2.3,0.9C188.7,643,187.8,643,187.3,642.1z"/>
<path class="st13" d="M800.2,735.2c0.5-0.7,1.3-1.1,2.2-0.9C801.9,734.9,801,735.3,800.2,735.2z"/>
<path class="st27" d="M191.9,644c0.8-0.1,1.6,0.3,2,1C193.1,645.1,192.3,644.7,191.9,644z"/>
<path class="st4" d="M219.8,782.1c0.9-0.2,1.9,0.1,2.4,0.8C221.3,783.2,220.4,782.8,219.8,782.1z"/>
<path class="st7" d="M486.9,796.3h3c-0.8,0.8-2.1,0.9-2.9,0.1C487,796.3,487,796.3,486.9,796.3z"/>
<path class="st25" d="M1033.7,647.2c-0.5,1.1-1.2,1.3-2,0.3L1033.7,647.2z"/>
<path class="st23" d="M162.3,562.6c-0.9-0.1-1.6-0.3-1.9-1.3C161.3,561.4,162.1,561.6,162.3,562.6z"/>
<path class="st28" d="M229.8,604.9c-0.8,0.1-1.6-0.2-2.1-0.9C228.5,603.8,229.4,604.2,229.8,604.9z"/>
<path class="st4" d="M232.2,677.5c-0.9,0.3-1.8,0-2.3-0.8C230.8,676.5,231.7,676.8,232.2,677.5z"/>
<path class="st4" d="M239.8,679.8c-0.9,0.2-1.7-0.1-2.3-0.8C238.4,678.8,239.3,679.1,239.8,679.8z"/>
<path class="st4" d="M117.3,510.3c-1.2-0.3-1.4-1.2-1.4-2.2C116.6,508.6,117.2,509.4,117.3,510.3z"/>
<path class="st14" d="M103,485.3c-1.2-0.3-1.3-1.2-1.2-2.2C102.6,483.6,103.1,484.4,103,485.3z"/>
<path class="st13" d="M728.5,697.3c-0.6,1-1.3,1.2-2.1,0.2L728.5,697.3z"/>
<path class="st43" d="M1298.8,408.3l0.8,0.3l-0.5,0.4l-0.2-0.8L1298.8,408.3z"/>
<path class="st44" d="M22,427.5c-0.3,0.1-0.6,0.2-0.9,0.4c0.1-0.7,0.5-1.4,1.2-1.7C22.2,426.6,22.1,427,22,427.5z"/>
<path class="st3" d="M82.1,590.8l-1.1-1C81.6,589.9,82,590.3,82.1,590.8z"/>
<path class="st3" d="M81,589.7l-1-1.1C80.6,588.7,81,589.1,81,589.7z"/>
<path class="st3" d="M78.9,587.5l-1.1-1.1C78.4,586.5,78.8,586.9,78.9,587.5z"/>
<path class="st24" d="M163.3,630.2c0.6,0,1.1,0.3,1.4,0.8C164.1,631.1,163.5,630.8,163.3,630.2z"/>
<path class="st29" d="M309.5,636.3c-0.4-0.2-0.9-0.5-1.3-0.7C308.7,635.4,309.3,635.7,309.5,636.3z"/>
<path class="st3" d="M80,588.6l-1.1-1.1C79.5,587.6,79.9,588,80,588.6z"/>
<path class="st31" d="M328.7,644.2c-0.7,0.7-0.9,0.3-1-0.4C328.1,643.7,328.5,643.9,328.7,644.2z"/>
<path class="st23" d="M164.6,564.7l-1.1-0.9C164.1,563.8,164.6,564.1,164.6,564.7C164.6,564.7,164.6,564.7,164.6,564.7z"/>
<path class="st23" d="M160.6,561.3c-0.6-0.1-1.1-0.6-1.2-1.2C159.9,560.3,160.4,560.8,160.6,561.3z"/>
<path class="st3" d="M83.3,591.9l-1.1-1C82.7,590.8,83.2,591.3,83.3,591.9z"/>
<path class="st23" d="M167,566.8l-1.2-1C166.4,565.8,166.9,566.3,167,566.8z"/>
<path class="st22" d="M135.4,535.4l-1.1-1.2C134.9,534.3,135.3,534.8,135.4,535.4z"/>
<path class="st22" d="M136.3,536.5c-0.3-0.4-0.6-0.8-0.9-1.1C136,535.4,136.4,535.9,136.3,536.5z"/>
<path class="st11" d="M617.7,709.3c-0.4,0.8-0.8,0.7-1.1-0.1L617.7,709.3z"/>
<path class="st14" d="M103.6,486.5l-0.6-1.3C103.6,485.4,103.6,485.9,103.6,486.5z"/>
<path class="st23" d="M163.3,563.7l-0.9-0.9L163.3,563.7z"/>
<path class="st32" d="M388.6,671.1l-1.1-0.5C388,670.4,388.4,670.6,388.6,671.1C388.6,671,388.6,671.1,388.6,671.1z"/>
<path class="st24" d="M184.7,579.8c-0.6,0-1.2-0.4-1.5-1C183.9,578.8,184.4,579.2,184.7,579.8z"/>
<path class="st32" d="M391.9,672.2l-1.1-0.6C391.2,671.4,391.7,671.7,391.9,672.2C391.9,672.1,391.9,672.1,391.9,672.2z"/>
<path class="st23" d="M165.7,565.8l-1-1C165.4,564.8,165.6,565.3,165.7,565.8z"/>
<path class="st25" d="M1035.9,646.4c-0.3,0.5-0.6,0.6-1,0.2C1035.2,646.2,1035.6,646.2,1035.9,646.4z"/>
<path class="st14" d="M100.1,478.8c-0.2-0.3-0.4-0.6-0.6-0.9C99.9,478,100.2,478.4,100.1,478.8z"/>
<path class="st24" d="M186.3,581l-1-0.8c0.4-0.1,0.9,0.2,1,0.6C186.3,580.9,186.3,581,186.3,581z"/>
<path class="st2" d="M156.5,646.1c-0.7,0-1.2-0.4-1.5-1C155.6,645,156.2,645.4,156.5,646.1z"/>
<path class="st24" d="M187.7,582c-0.6,0-1-0.4-1.2-0.9C187,581,187.5,581.4,187.7,582z"/>
<path class="st15" d="M673.1,703.8c-0.3,0.6-0.7,0.7-1.1,0.1L673.1,703.8z"/>
<path class="st7" d="M410.2,709.4c-0.4,0.5-0.7,0.5-1.1,0L410.2,709.4z"/>
<path class="st1" d="M212.8,431.4c-2.4-5.9-7-10.7-12.8-13.4c7.2-5.6,9.6-8.1,10.8-13.3c2.8-11.9-0.6-26-14.4-32.3
	c-5.3-2.4-11-3.6-16.8-3.5c-15.2,0-30.4,0-45.6,0c-4.1,0-4.2,0.1-4.2,4.1c0,31.1,0,62.2,0,93.3c0,3.8,0.1,3.9,3.8,3.9
	c15.9,0,31.8,0.1,47.8,0c5.6,0,11.2-1.1,16.4-3.1c0.4-0.1,0.7-0.3,1.1-0.4C212.4,460.8,218.7,445,212.8,431.4z M148.2,389.1
	c0-2,0.6-2.9,2.8-2.9c9.6,0.1,19.1,0,28.7,0.3c5.4,0.1,9.7,2.7,12.1,7.8c2.6,5.7,0.3,11.5-5.5,13.8c-2.2,0.9-4.5,1.4-6.9,1.4
	c-0.7,0-1.4,0.1-2.2,0.1h-11.4v0c-4.9,0-9.8-0.1-14.6,0c-2.4,0.1-3.1-0.8-3.1-3.2C148.4,400.7,148.3,394.9,148.2,389.1z
	 M189.8,449.8c-3.9,2.1-8.2,2.6-12.6,2.7c-4,0-8,0-11.9,0c-4.7,0-9.4-0.1-14.1,0c-2,0-2.9-0.7-2.9-2.8c0.1-6.9,0.1-13.7,0-20.6
	c0-1.8,0.7-2.6,2.5-2.6c9.8,0.1,19.5-0.1,29.3,0.3c4.6,0.2,8.9,2.2,12.2,5.4C198.2,437.9,197,446,189.8,449.8z"/>
<path class="st1" d="M833.9,580c4.3,0,8.6,1,12.8-0.7c0.6-4.5,0.7-9,0.1-13.5c-1.6-18-12.2-29.9-29.7-33.2c-5.2-1-10.5-1.1-15.7-0.3
	c-16.1,2.2-27.4,10.7-32.5,26.4c-3.1,9.6-3,19.9,0.2,29.4c3.5,11,10.7,18.9,21.5,22.9c15.1,5.5,29.8,4.4,44-3.3
	c2.8-1.5,5.6-3.3,7-5.5l-11.4-12.6c-1.1,0.8-2.2,1.6-3.4,2.3c-9.6,5.3-19.5,6.5-29.7,2.1c-5.8-2.5-9.4-7-10.3-14l5.8,0.1
	C806.4,580.1,820.2,580.2,833.9,580z M797.9,551.3c6.5-2.9,13.9-3,20.5-0.3c4.8,1.8,7.9,5.5,9.4,10.5c0.7,2.3-0.1,2.9-2.2,2.9
	c-7.9,0-15.8,0-23.8,0l-14.8,0C789,557.7,792.5,553.6,797.9,551.3z"/>
<path class="st1" d="M586,565.7c-2.9-15.8-11.8-26.5-27.3-31.3c-6.1-1.8-12.5-2.2-18.8-1.2c-9.5,1-18.1,5.8-24.1,13.2
	c-6.6,8-9.1,17.4-9.2,27.7c-0.1,21.1,15,40.4,40.1,39.8c18.5,0,32.8-10,38-26.6C586.9,580.2,587.4,572.9,586,565.7z M564.1,586.2
	c-3.8,7-10.1,9.9-17.9,10.1c-8.6-0.4-15-4.3-18.4-12.2c-2.9-6.5-3.1-14-0.3-20.6c3.1-7.7,8.6-12.3,17.1-13
	c8.6-0.7,15.2,2.9,19.4,10.3C568.8,569.2,568.7,577.9,564.1,586.2z"/>
<path class="st1" d="M571.3,437.4c-0.2-3.6,0-7.3-0.4-10.8c-1.6-14.9-10.7-25.4-24.8-28.6c-4.1-0.9-8.2-1.3-12.4-1.2
	c-18.2,0.7-31.4,11.2-35,28.2c-1.4,6.8-1.3,13.7,0.4,20.5c3.3,13.1,11.3,21.5,24.3,25.2c11.2,3.2,23.3,2.3,33.8-2.8
	c3.6-1.6,7-3.7,9.3-6.6l-11.1-11c-9,5.8-18.5,7.6-27.1,4.7c-6.4-2.1-11-6.1-12.2-13.9l23.8,0c9.2,0,18.5-0.1,27.7,0.1
	C570.5,441.2,571.4,440,571.3,437.4z M550.2,426.5c-5.9-0.2-11.9-0.1-17.8-0.1h-16c2.2-7.3,6.5-11.4,13.1-13.1
	c4.9-1.4,10.1-1.2,14.9,0.5c4,1.3,7.3,4.3,8.8,8.2C554.5,425.6,554,426.7,550.2,426.5z"/>
</svg>
