<svg id="Capa_1" data-name="Capa 1" xmlns="http://www.w3.org/2000/svg" viewBox="0 0 1325.6 803.24"><defs><style>.cls-1{fill:#00272f;}.cls-2{fill:#005156;}.cls-3{fill:#008987;}.cls-4{fill:#008c89;}.cls-5{fill:#008684;}.cls-6{fill:#008482;}.cls-7{fill:#007f7e;}.cls-8{fill:#007b7a;}.cls-9{fill:#007676;}.cls-10{fill:#007d7c;}.cls-11{fill:#007071;}.cls-12{fill:#007474;}.cls-13{fill:#006567;}.cls-14{fill:#006a6b;}.cls-15{fill:#008986;}.cls-16{fill:#006c6d;}.cls-17{fill:#00565a;}.cls-18{fill:#005459;}.cls-19{fill:#005d60;}.cls-20{fill:#006163;}.cls-21{fill:#00595d;}.cls-22{fill:#006265;}.cls-23{fill:#008381;}.cls-24{fill:#00807e;}.cls-25{fill:#007c7b;}.cls-26{fill:#005c5f;}.cls-27{fill:#007272;}.cls-28{fill:#007878;}.cls-29{fill:#007575;}.cls-30{fill:#00696a;}.cls-31{fill:#006667;}.cls-32{fill:#006365;}.cls-33{fill:#005f61;}.cls-34{fill:#015b5e;}.cls-35{fill:#22434a;}.cls-36{fill:#416e72;}.cls-37{fill:#405d63;}.cls-38{fill:#457c80;}.cls-39{fill:#9f9295;}.cls-40{fill:#59686c;}.cls-41{fill:#5f5d63;}.cls-42{fill:#4f4249;}.cls-43{fill:#6f787d;}.cls-44{fill:#10272f;}</style></defs><path class="cls-1" d="M1323.75,426.83,1177.5,297.93c-1.54.32-2,1.82-2.85,2.9q-56.58,75-113.13,150.07-44.7,59.27-89.43,118.5c-3.59,4.75-3.61,4.78-8.64,1.29q-62.78-43.56-125.54-87.13Q780.46,443.71,723,403.88q-68.58-47.6-137.12-95.22-56.76-39.42-113.56-78.8-44.3-30.75-88.57-61.55c-5.71-4-5.72-4-11,.56Q322.85,212.18,273,255.49q-38.43,33.35-76.92,66.63-44.54,38.72-89,77.53-24.9,21.68-49.86,43.29A17,17,0,0,1,55,444.37c-1.27.2-1.79-.32-1.5-1.59C62.85,430.42,72.17,418,81.6,405.7q36.53-47.71,73.15-95.37,56.43-73.44,112.91-146.82,38.44-50,76.82-100.1,15.31-20,30.7-39.89c2.71-3.51,2.76-3.51,6.19-1.11L539.54,132.85q57.76,40.35,115.51,80.72,69.74,48.77,139.43,97.58Q852,351.38,909.55,391.52q27.11,18.94,54.2,37.9a11.33,11.33,0,0,1,1.32.95c2,1.91,3.69,2,5.77-.29,5.11-5.61,10.53-10.94,15.75-16.46,8.08-8.53,16.07-17.14,24.13-25.68q23.64-25,47.33-50c8-8.39,16-16.7,24-25.1q22.17-23.43,44.29-46.92,10.42-11,20.89-22,12.75-13.34,25.53-26.63c.25-.26.51-.51.77-.77,3.7-3.66,3.73-3.68,6.58.38,4,5.62,7.85,11.26,11.77,16.89q28.77,41.4,57.52,82.78,26.87,38.73,53.66,77.5,10.92,15.8,21.78,31.66C1325.13,426.68,1324.81,427.1,1323.75,426.83Z" transform="translate(-28.08 -20.73)"/><path class="cls-2" d="M1132.69,242.18c-5.87,6.37-11.68,12.79-17.61,19.1q-23.22,24.68-46.53,49.26c-7.33,7.75-14.71,15.43-22,23.17q-23.67,25-47.34,50c-7.71,8.13-15.48,16.2-23.2,24.32-2.24,2.36-4.53,4.68-6.57,7.2s-3.82,1.68-6,.16c-10.77-7.61-21.61-15.14-32.41-22.71L826.76,319.53q-50.82-35.62-101.64-71.24-55.26-38.72-110.53-77.43L505,94l-2.62-1.87c.15-1.7,1.05-1.68,2.25-1,11.84,5.32,23.71,10.61,35.53,16q40.93,18.57,81.84,37.22,45.33,20.67,90.66,41.36,46.3,21.11,92.64,42.13,44.37,20.19,88.73,40.42,34,15.5,68,31a6.75,6.75,0,0,0,5.61.26q77.82-27.63,155.69-55.11c2.55-.9,5.17-1.61,7.76-2.42A1.28,1.28,0,0,1,1132.69,242.18Z" transform="translate(-28.08 -20.73)"/><path class="cls-3" d="M174.3,776.65c-8.5-3.09-16.36-7.52-24.2-11.92a280.27,280.27,0,0,1-53-38.06,9.75,9.75,0,0,1-1-1.24c-3.74-4.44-5.7-9.18-2.41-14.74,1-1.7.14-2.6-1.09-3.61-2.56-2.1-4.38-4.16.9-4.89,1.21-.16,2.16-.85,1.8-2.18-2.74-10.24,1-20.24,1.06-30.37,0-3.41-.28-6.82,1.12-10.14A5,5,0,0,0,96.22,654c-3.14-3.28-2.8-6.58-.72-10.36A18.53,18.53,0,0,0,98,632.17a16.23,16.23,0,0,1,1-7.48,16,16,0,0,0,.65-9.49c-1.12-4.83,1.61-7.93,6.27-8.08l0,0a3.37,3.37,0,0,0,1.08,1.14h0a4.07,4.07,0,0,0,1.1,1.09h0a13.26,13.26,0,0,0,1,1.12l0,.06,1.05,1,0,0a6.85,6.85,0,0,0,1.12,1c8.52,7.73,17,15.53,26,22.64a328.7,328.7,0,0,0,43,28.73c.92.52,1.75,1.21,2.63,1.83-1.45,7.61.84,15.55-2.07,23.06-.46,1.19.62,2.39,1.2,3.51.79,1.52,1.26,3.31.26,4.66-2,2.67-1,6.3-2,8.38-2.74,5.43,2.07,10.67-.8,15.64,4.55,6.11-.29,11.77-.87,17.63-.8,8.09,1.4,16.32-.71,24.29C176.81,767.52,177.87,772.74,174.3,776.65Z" transform="translate(-28.08 -20.73)"/><path class="cls-4" d="M105.94,607.12c-5.14,2.33-6.42,4.91-4.49,9.61.8,1.94,1.17,3.43-.07,5.51-2.18,3.66-2.42,7.92-1.95,12.07.26,2.26.31,4.15-1.15,6.09-1.32,1.77-.32,4.46-2.88,6.17-1.19.8-.85,4,1,5.81,3.38,3.3,3.9,5.54,2,9.35-.8,1.57-.5,3-.69,4.5-.5,4.07,1.68,8.39-1.07,12.23-.59.81-.25,1.69,0,2.58,1.06,4.18-3,8.42.1,12.6-1.51,1.72-1.43,3.13-.07,5.2,2.14,3.26,1,4.9-3,5-.81,0-1.65-.81-2.42,0-.07.73.57.86.9,1.25,1.31,1.52,4,1.39,4.68,3.28.73,2.13-2.39,2.35-2.91,4.14-.35,1.18-1.55,2.41-.73,3.54,2,2.82.75,6.61,3,9.31a191.67,191.67,0,0,1-27.36-30.61,203.89,203.89,0,0,1-31.3-63.24,236.53,236.53,0,0,1-7.91-40.79c-3.28-29.17-.95-57.92,5.64-86.41a123.91,123.91,0,0,1,5-17.28c2.82,6.17,3.39,12.53,5.27,18.54,10.57,33.79,28.13,63.61,51,90.45C99.56,599.79,102.76,603.44,105.94,607.12Z" transform="translate(-28.08 -20.73)"/><path class="cls-5" d="M174.3,776.65c.27-2.25,1.85-4.4.48-6.8a2,2,0,0,1,.06-1.54c3.15-7.44,3.17-15.09,1.95-22.94-.53-3.44,1.37-7,.19-10.57-.26-.82.89-1.83,1.65-2.64,3.05-3.27,3.19-5.21-.13-8-2-1.73-1.75-2.75-.16-4.23A4.53,4.53,0,0,0,179.7,716a2,2,0,0,0-1.36-2c-3.13-1.3-3.3-1.62-1-3.79,2.54-2.41,3-4.78,1.19-7.67-1.07-1.73-.49-2.8,1-4.07,3.1-2.58,3.13-3.14.58-6.57a4.13,4.13,0,0,1-.57-4.83,23.4,23.4,0,0,0,1.54-12.44c-.4-3-1.74-6.57,1.92-8.83v0a1.88,1.88,0,0,0,1.51,1q9.24,4.46,18.49,8.89a424.3,424.3,0,0,0,48.72,19.55,13.4,13.4,0,0,1,1.88,1c.25,12.67-1.9,25.26-1.29,37.95a9,9,0,0,1-1.37,4.6c-.67,1.33-1.32,2.88-.57,4.15,2.65,4.52,1.47,8.62-.87,12.75-.62,1.1-1.24,2.56-.81,3.63,3.07,7.71-1.4,15.63.82,23.37a15,15,0,0,1-.89,11.57c-1.39,2.6-.59,5.71-1.59,8.44-10.48-2.1-20.55-5.61-30.62-9-13-4.42-25.93-9.06-38.39-14.9C176.76,778.11,175.32,777.76,174.3,776.65Z" transform="translate(-28.08 -20.73)"/><path class="cls-6" d="M247.07,802.65c-2.39-4-.33-7.67,1.15-11.24.65-1.58,1.29-3,.63-4.59-1.3-3.19,0-6.88-2.07-9.94-.67-1,.24-2,.6-3,1.26-3.56,2.23-6.89.21-10.8-1.62-3.13-.52-6.7,1.42-9.75s2.87-6-.07-9.24c-1.76-1.92-.58-4.24.71-6a6.1,6.1,0,0,0,1-6c-1-3.76.05-7.76.35-11.55.33-4.19-.32-8.69,1.72-12.72.22-.43.34-1.34.12-1.51-4.63-3.5-.39-6.58.42-9.81,0-.14.26-.24.4-.35h0c.91,1.15,2.43.28,3.46,1a.64.64,0,0,1,.86.21c.67.58,1.56.49,2.32.78l-.06,0c1,1.7,3.07.1,4.25,1.29l1.13.24c.7.47,1.6.34,2.3.78,10.59,2.3,20.87,5.78,31.52,7.85,10.29,2,20.52,4.27,30.77,6.45a12.71,12.71,0,0,1,2,.78c-5.3,3.5-6.08,8.65-6.16,14.59-.19,13.89-.69,27.81-2,41.64-.49,5.1-2.31,9.86,0,15.11,1.22,2.75-1.33,5.84-1.57,8.93-.58,7.39.88,14.69.68,22-8.34-.11-16.44-2.11-24.62-3.37-12.48-1.92-24.76-4.88-37.07-7.64a5.18,5.18,0,0,1-1.38-.79c-1.17-1.43-3.07-.06-4.33-1.14h0c-1-1.13-2.48-.32-3.56-1l-1.86-.28c-.73-.52-1.67-.42-2.43-.82l-.45.07Z" transform="translate(-28.08 -20.73)"/><path class="cls-7" d="M323.12,817.91c-2.37-1.76-2.72-4.24-1.86-6.74.65-1.86.3-3.42-.08-5.21a25.66,25.66,0,0,1,1.19-15.73c1.18-2.76.49-5-1.05-7.06-1.13-1.56-2.23-3.34-1-4.92,3.4-4.2,2.37-9.15,2.7-13.82.76-10.84,1.35-21.71,1.67-32.58.09-3.17-.16-6.28.39-9.51.74-4.34,3-6.3,7.06-6.75,9.9.95,19.57,3.34,29.41,4.7,10.93,1.51,21.83,3.15,32.75,4.76a24.5,24.5,0,0,1,2.62.66c.19,5.11,1.51,10.33-1.56,15.11a1.59,1.59,0,0,0-.14,1.06c1.44,9.83-1.67,19.57-.44,29.44.8,6.44-1.12,12.86-1,19.38,0,3-.71,6,0,9.08,1.3,5.41-2.53,9.93-2.61,15.23,0,2.8-.51,5.55.34,8.31-11,.53-22-.66-33-1.32-10.08-.61-20.12-2-30.17-3A13.64,13.64,0,0,1,323.12,817.91Z" transform="translate(-28.08 -20.73)"/><path class="cls-8" d="M447.25,730.91c9.18-.3,18.29.92,27.43,1.42,10.95.6,21.9.85,32.86,1.1,1.93,0,3.94-.37,5.8.58,2.39,1.55,2,3.89,2,6.28,0,5.33-.92,10.76,1.41,15.89.38.83.74,1.9.31,2.62-3.55,6-1.15,12.61-1.86,18.87-.65,5.77,1.1,11.57-1.09,17.68-1,2.76-.22,6.86-1,10.41-.78,3.79-1.65,7.88,1.48,11.28-2.26,1.33-4.91,1.32-7.33,1.54-18.23,1.6-36.49,2.94-54.74,4.39a2.34,2.34,0,0,1-2-.57,7.35,7.35,0,0,1-3.19.41c-9.12.17-9,.19-7.7-8.71.75-5-.73-10-.92-15-.27-7.55-.2-15,2.77-22.08a4.21,4.21,0,0,0,.64-2c-1.81-13.65,2.28-27.21.67-40.87C442.49,730.88,444.25,729.86,447.25,730.91Z" transform="translate(-28.08 -20.73)"/><path class="cls-9" d="M514.64,817c-2.26-.08-3.92-.78-3.57-3.5.46-3.66-.45-7.49,1.6-10.95,1-1.61,1.22-4,.26-5.2-2.48-3.17-.55-5,1.12-7.4,1.29-1.84,3.33-4.14-.16-6.3-1.07-.67-1.43-2.53-1-4,.53-1.66,1.84-3.25-.14-4.82-.09-.07-.11-.44,0-.49,3.79-2.6,1.15-5.56.55-8.45a5.08,5.08,0,0,1,1.4-4.47c1.71-2,2-4.24.16-6.33-1.46-1.7-.79-3.52-1-5.38-.57-5.27,1.14-10.59-.52-15.77,8.87-.68,17.75,0,26.62-.19q22.77-.51,45.56-1a18.73,18.73,0,0,1,2.66.32,5.75,5.75,0,0,1,1.4,4.51c-1.1,12.55-1.55,25.13-2.2,37.7a20.27,20.27,0,0,1-1.46,5.75c-.49,1.35-1.46,2.83-1.12,4.12,1.87,7.23-.37,14.68,1.31,21.89-8.52,2.24-17.27,3.3-26,4.62s-17.41,2.34-26.13,3.42c-5.33.67-10.69,1.2-16,1.79a3.43,3.43,0,0,1-3,0Z" transform="translate(-28.08 -20.73)"/><path class="cls-10" d="M447.25,730.91c-2.16.15-4,.34-3,3.47s0,6.47.27,9.57c.44,4.6-1.6,9.09-.09,13.65a8.45,8.45,0,0,1-1.4,8.19c-1.89,2.39-2,4.54.29,6.66,2.1,2,1.61,3.79-.34,5.49s-2.77,3.34-1.77,6.13-.78,5.58-1.2,8.39c-.27,1.81-.65,3.42,0,5.23a12.06,12.06,0,0,1,.53,6.7c-.38,2.26,1.18,5,1,7.64-.14,2-.14,3.8-1.23,5.68-1.6,2.76-.59,4.28,2.69,4.53,2.51.19,5,.12,7.57.16a13.56,13.56,0,0,1-3.11.8c-18.11.2-36.22,1.4-54.33.33-.54,0-1.07-.14-1.6-.21-3.71-2.49-3.79-2.53-2.21-6.24.8-1.89,1.59-3.77.9-5.74-.75-2.12-.88-3.39,1.48-4.85,1.95-1.21,1.21-4.14.77-6.09-.82-3.62-1.51-7,.46-10.49.71-1.24-.75-2.4-.68-3.58a39.7,39.7,0,0,1,1-8.53c1.25-4.49-.23-8.82-.55-13.15-.12-1.73-.54-3.22.2-4.92a16.61,16.61,0,0,0,1.22-9.33c-.64-4.72-2.13-10.07,1.91-14.41a2.63,2.63,0,0,0,0-3.51c-1.88-2.59-.84-4.71.92-6.77,8.12.2,16.13,1.44,24.16,2.47,5.35.68,10.82.34,16.08,1.87a.73.73,0,0,0,1.06.05C441.28,730,444.34,729.7,447.25,730.91Z" transform="translate(-28.08 -20.73)"/><path class="cls-11" d="M701.27,784.42c-5.24,2.59-11.12,2.66-16.66,4-10.63,2.62-21.43,4.55-32.16,6.73a11.82,11.82,0,0,1-2.15.05c-1.38.92-3.13-.06-4.52.86l-2,.23c-6.87.86-7.87,0-7.51-6.49.07-1.26.43-2.6,0-3.77-3-8.48.63-16.67,1-25,.37-8.6.71-17.19,1.73-25.74.21-1.77-.21-3.64,1.28-5.07a8,8,0,0,1,4.36-.37c.33.46.68.46,1.07.08l1.79-.15c1.84-.76,3.85,0,5.72-.63,7-1.29,14.18-1.43,21.27-2.16,8.51-.89,17.05-1.57,25.57-2.33a.72.72,0,0,0,1.07-.12c2.38-1.33,5-.61,7.49-.86-3,3.85-2.47,8.65-3.67,12.9-2.23,7.9-.83,15.69-1.48,23.47-.53,6.35.68,12.86-.7,19.27C702.44,781.08,702.49,782.93,701.27,784.42Z" transform="translate(-28.08 -20.73)"/><path class="cls-12" d="M640.32,730.24c.13,2-.32,4,.43,5.89a2.78,2.78,0,0,1-.37,3c-.33.41-.88,1-.8,1.36.94,4.23-.47,8.28-.67,12.41-.16,3.5,1.2,7.08-.91,10.42-.09.15-.25.41-.2.48,3,4.07-.91,7.29-1.45,10.89-.51,3.38.84,6.33,1.31,9.46a17.39,17.39,0,0,1,.35,5.32c-.94,6.24-.74,6.49,5.8,6.83A111.46,111.46,0,0,1,627.65,800c-12.18,2.08-24.17,5.21-36.5,6.45-1.32.36-2.81-.37-4,.6l-.48.24-.52-.1c-2.4,0-3.87-.68-2.76-3.59s-.12-6.48,1.33-9.55c.39-.84-.18-1.72-.68-2.5-2-3-1.69-6.16-.22-9.23,1.76-3.67,2.14-7.49,2.32-11.51.46-10.74.54-21.51,2-32.19a40.49,40.49,0,0,0,.07-5.4.49.49,0,0,1,.78-.11,3.05,3.05,0,0,1,2.82,0,7.13,7.13,0,0,1,2-.66c15-.4,30-1.28,44.93-2.45A6.41,6.41,0,0,1,640.32,730.24Z" transform="translate(-28.08 -20.73)"/><path class="cls-13" d="M828.28,755.89l-1.93.24c-3.77-.58-5.9-3.21-4.28-7,3.27-7.7.94-15.64,2-23.39.68-5,.92-10,1.76-15a3.85,3.85,0,0,1,2.37-3.35c9.08-2.23,18.41-2.93,27.61-4.43,14.9-2.42,29.76-5,44.64-7.49,1.59-.27,3.21-.26,4.82-.37,1.27,1.17,1,2.67.65,4a49.54,49.54,0,0,0-.78,17.71c.24,1.68-.44,3.14-1,4.67-3,8.18-2.06,10.9,5.43,16-3.93,1.89-8.31,2.16-12.46,3.06q-25.27,5.49-50.49,11.29c-3.49.8-7,1.38-10.54,2.06-1.39.92-3.14-.06-4.53.86l-1.09.16C829.86,755.59,828.9,755.34,828.28,755.89Z" transform="translate(-28.08 -20.73)"/><path class="cls-14" d="M828.2,707.39a24,24,0,0,0-1.42,10.94c0,.36.35.86.22,1-3.06,3.77.13,8.34-1.61,12.31a7.1,7.1,0,0,0-.34,3.72c.77,4.8,1.4,9.35-1.8,13.82-1.5,2.1.27,5,3.1,6.92-9.08,2.18-18.15,4.4-27.24,6.55-11,2.62-22.11,5.17-33.15,7.79a26.1,26.1,0,0,1-7,.9c-4.75-1.52-3.89-5.7-3.4-8.81,1.78-11.39.83-23,3-34.31.65-3.48-3-6.72-1-10.44,5.13-1.83,10.58-1.56,15.87-2.39C791.64,712.57,809.93,710,828.2,707.39Z" transform="translate(-28.08 -20.73)"/><path class="cls-15" d="M94.94,567.13c-5.94-8.54-9.7-18.14-12.71-28a101.15,101.15,0,0,1-4.67-30.41c.09-14.56,3.12-28.36,10.74-40.94,4.64-7.66,10.77-13.58,19.61-16.17,3.57-1.05,3.92-.94,4.91,2.69q5.5,20.07,12.83,39.56c-2.65,5.52-3.41,12-6.09,17.1-3.93,7.5-5.39,16-10,22.92-3.48,5.17-3.6,11.16-6.11,16.52C100.76,556.11,97.13,561.25,94.94,567.13Z" transform="translate(-28.08 -20.73)"/><path class="cls-16" d="M757.54,717.81c1,2.64.92,5.65,2.77,8a2.37,2.37,0,0,1,.34,2c-2.94,6.71-.59,14.14-2.86,20.93a2.17,2.17,0,0,0-.1,1.07c1.09,4.63.32,9-.9,13.58a9.09,9.09,0,0,0,2.2,7.93c-4.46,2.66-9.68,2.58-14.52,3.84-12.52,3.25-25.2,5.87-37.84,8.68a45.25,45.25,0,0,1-5.36.53c-.89-4.89,1.24-9.55,1.13-14.42,0-2.14.21-4.25-.65-6.27a4.38,4.38,0,0,1-.3-3.66c2.12-4.52.62-9.1.3-13.65,0-.7-.63-1.66-.35-2,3.93-5.33,1.56-11.71,2.9-17.49.68-2.9,3.24-1.75,4.37-3.18,4.64-1.59,9.57-1.32,14.34-2,10.43-1.51,21-2.35,31.44-3.46a1.58,1.58,0,0,0,2.13-.24A.71.71,0,0,1,757.54,717.81Z" transform="translate(-28.08 -20.73)"/><path class="cls-17" d="M1172.62,647.61c10.89-2.57,22-3.45,33.08-4.9,11.56-1.51,23.16-2.67,34.79-3.56,2-.15,3.94-.16,5.91-.18-.5,2.46-3.4,2.81-4.33,5.18-1.12,2.84-4,5-1.43,8.64.9,1.25-.16,3.14-.72,4.66-.5,1.36-1.49,2.94-.67,4.14,2.93,4.28,0,6.94-2.36,9.82-9.64,2.11-19.29,4.17-29,5.84-9.92,1.69-19.79,3.73-29.69,5.56-1.76.33-3.58.35-5.37.51-1.92.56-3.9,1.18-5.3-.94s1.11-2.6,1.56-3.88c2-5.89,2.63-12,.66-18C1168,655.37,1169.32,651.38,1172.62,647.61Z" transform="translate(-28.08 -20.73)"/><path class="cls-18" d="M1236.89,671.41c-.71-.26-2.08-.1-1.25-1.49.33-.55,1.17-.78,1.76-1.19,2-1.39,3.12-2.84,1-5.21a3.93,3.93,0,0,1-.33-5.32c1.61-2.48,3.08-5.49-.22-8.13-.89-.72-.56-1.67.18-2.32a10.87,10.87,0,0,0,3.62-5.84c.59-2.57,3.37-1.61,4.73-2.94l1.25-.07a2,2,0,0,0,2,.07c14.55-1.62,29.11-1.11,43.64-.08,19.52,1.4,38.69,4.65,57,11.87.83.33,1.68.66,2.48,1.06.28.14.46.5.86,1-33.4,4.42-66.37,10.59-99.44,16.11-1.42.23-2.88.21-4.31.31-1.38.93-3.11-.06-4.49.86l-2,.24c-1.39.91-3.13-.07-4.52.85Z" transform="translate(-28.08 -20.73)"/><path class="cls-19" d="M1006.39,677.94c7.11-1.9,14.46-2.56,21.66-4,10.54-2,21-4.58,31.68-5.69a1.47,1.47,0,0,0,2-.35.92.92,0,0,1,1.22-.68.9.9,0,0,0,1-.16l2.14-.27c2.33,3.18,0,6.59-.33,9.55-.53,5.65-1.18,11.12,0,16.7.07.35.19.82,0,1-3.5,4.45.4,6.9,2.62,9.81-.7,1.08-1.86.91-2.89,1.12-13.41,2.62-26.84,5.1-40.2,8-5.45,1.16-10.8,2.73-16.42,2.94-3.59-.58-6.41-5.42-4.6-9.14,1.29-2.64.15-5.92,2.6-8.06-4.43-1.85-1.2-5.86-2.36-8.73s.11-6.43-.06-9.67C1004.44,679.15,1005.35,678.43,1006.39,677.94Z" transform="translate(-28.08 -20.73)"/><path class="cls-20" d="M1006.39,677.94c-.42,1-1.29,1.94-.87,3a7.33,7.33,0,0,1,0,5.67,4.09,4.09,0,0,0,.46,4.11c1.13,1.35.85,2.56.18,3.94-.29.61-.61,1.84-.44,1.94,3.1,1.74,0,4.72,1.41,6.79a1.92,1.92,0,0,1-.32,2.49c-4.37,3.51.54,6.4.62,9.6,0,.17,1,.31,1.47.47a10.34,10.34,0,0,1-2.38,1.18Q983.27,722,960,726.76a6.46,6.46,0,0,1-1.08,0c-.75.43-1.7.3-2.41.84l-2,.24c-4,1.24-5.7.26-5.1-4.3.57-4.37-2.27-8.49-1.1-13.16.73-2.89.32-6.07,1.81-8.87.83-1.57.27-3.06-.12-4.67-.8-3.32-1.44-6.78,2.08-9.2,9.83-2.45,19.89-3.67,29.86-5.32,6.95-1.16,13.7-3.22,20.69-4.12C1003.88,678.08,1005.14,678,1006.39,677.94Z" transform="translate(-28.08 -20.73)"/><path class="cls-5" d="M94.94,567.13a11.55,11.55,0,0,1,3.19-9.37,13.55,13.55,0,0,0,3.32-6.69c.22-1.07.22-2.24,1.12-3,1.8-1.43,1.46-3.22,1.62-5.22a12.65,12.65,0,0,1,2.54-6.88c3.68-4.88,5.44-10.76,6.71-16.71.31-1.45.48-3.31,1.56-3.9,4.85-2.69,3.68-7.71,5-11.76,1.16-3.69,2.28-7.38,5.7-9.74l0,.08c.29.8.15,1.8,1,2.33l0-.08c.41.74.31,1.67.9,2.33l0,.08a1.31,1.31,0,0,1,.64.91,2.1,2.1,0,0,1,.61,1.89c.39.81.17,1.92,1.14,2.47l-.06-.09c.43.73.21,1.81,1.21,2.23l-.09-.12a6.61,6.61,0,0,0,.65,1.27L143.52,528c-5.85,11-9.56,22.87-14.55,34.23-3.13,7.15-7.29,14-9,21.8-.8,3.62-1.94,7.38-5.59,9.48A108.36,108.36,0,0,1,94.94,567.13Z" transform="translate(-28.08 -20.73)"/><path class="cls-21" d="M1172.62,647.61c0,.36.12.82,0,1.07-3.9,5.9-1.3,11.88-.23,17.82a13.1,13.1,0,0,1-.4,6.39c-.61,2-2.13,3.9-.87,6.22.43.79-.06,1.33-1,1.15s-2-.54-2,.77a2,2,0,0,0,1.56,2,23,23,0,0,0,3.24.29c-5.44,1.22-10.85,2.54-16.3,3.64-12.89,2.61-25.8,5.11-38.7,7.66a20.62,20.62,0,0,1-5.9.63c-1.61.54-2-.74-2-1.7.36-3.8-.8-7.53-.49-11.29.26-3.17,1.42-6.27-.47-9.41a3.26,3.26,0,0,1,1-4c3.53-2.88,3.71-6.54,2.94-10.54,5.66-2.58,11.84-2.81,17.82-3.85C1144.66,652.08,1158.65,649.89,1172.62,647.61Z" transform="translate(-28.08 -20.73)"/><path class="cls-22" d="M952.08,687.68c-.79,3.47-3.08,7,.53,10.29a1.74,1.74,0,0,1,0,2.48c-2.85,3.12-2.8,6.9-2.65,10.73a8.35,8.35,0,0,1-.6,3.72,2.25,2.25,0,0,0,.5,2.94c2.17,1.65,1.53,3.79,1.16,5.93-.62,3.62-.6,3.62,3.52,4.11-9.5,2.51-19.1,4.63-28.78,6.27-4.23.72-8.18,2.92-12.63,2.38-1,.84-2.37.07-3.34.91l-.2.09c-6.58-.54-9.42-3.66-8.26-9.73.54-2.78-.87-6.26,2.45-8.31.63-.39.41-1.33.22-2-2-7.6-.18-15,1.3-22.36h.07c1-.74,2.23-.16,3.23-.74A423.17,423.17,0,0,1,952.08,687.68Z" transform="translate(-28.08 -20.73)"/><path class="cls-23" d="M114.35,593.47c2-4.38,4.47-8.45,5-13.56.3-2.95,2.81-5.74,4.55-8.47a7.15,7.15,0,0,0,1.53-4.48,4.74,4.74,0,0,1,.81-3.62c3-3.29,3.69-7.68,5.64-11.47a41.52,41.52,0,0,0,3.72-10c1.17-5.25,4.33-9.79,7.93-13.87a.74.74,0,0,1,.43.86c.54.69.26,1.89,1.39,2.2l17.09,23.91c-.24,3.9-2.07,7.51-3.87,10.57-5.83,9.89-7.7,21.34-13.26,31.35-3.28,5.9-3.4,13.25-6.93,19.25-3.37-1.13-5.43-4-7.88-6.26C124.86,604.64,119,599.66,114.35,593.47Z" transform="translate(-28.08 -20.73)"/><path class="cls-24" d="M138.37,616.1a4.72,4.72,0,0,1,.11-3.63,48.19,48.19,0,0,0,3.8-11.73C143,596,146,592.23,148,588c2.45-5.21,3.15-11.1,5.8-16.13,2.81-5.33,4.59-11.14,7.85-16.23a4.21,4.21,0,0,1,.79-.72h0c.17.56.66.83,1.06,1.16h0c.32.37.63.75.95,1.13l22,22.71c-3.23,3.11-4.64,7.26-6.16,11.27-5.49,14.47-11.75,28.65-16.88,43.26-7-3.35-12.9-8.42-19.07-13C142.22,619.91,139.66,618.65,138.37,616.1Z" transform="translate(-28.08 -20.73)"/><path class="cls-25" d="M163.39,634.47a4.81,4.81,0,0,1,0-4.57c2.35-5.42,4.45-11,6.65-16.45,4-9.94,8-19.86,11.84-29.84.87-2.23,1.86-3.87,4.52-3.67a.93.93,0,0,1,1,1,1.8,1.8,0,0,0,1.21,1.16l-.08-.08c.29.9,1.42.64,1.85,1.34l.17.22a1.44,1.44,0,0,1,.85.86l.25.16a5.52,5.52,0,0,1,1.06.87l.07,0c.33.36.67.7,1,1l.06.05a3.81,3.81,0,0,0,1.21,1c5.5,3.85,11,7.65,16.18,12-3.36,6.36-5.55,13.23-8.21,19.87-3,7.49-7,14.52-9.4,22.31-.92,3-.61,6.38-2.33,9.19-7-2.4-12.84-6.86-19.19-10.43C169.08,638.73,165.83,637.16,163.39,634.47Z" transform="translate(-28.08 -20.73)"/><path class="cls-26" d="M1112.89,658.34c.71,2,3.08,3.56,2.77,5.66s-2.64,3.32-4.16,4.83c-1.8,1.8-2.6,3.55-.41,5.52a2.68,2.68,0,0,1,.53,3.83c-1.21,2-1.12,4.23-.84,6.34.41,3.18,1.25,6.3.17,9.51-.09.27.61.81,1,1.22-4,1.73-8.32,2-12.46,2.78-10.32,2-20.52,4.76-31,5.91-1.16-.1-1.85-1-2.73-1.56-4-2.71-4.1-2.67-1.49-6.93.75-1.23,1.07-2.35-.07-3.38a3,3,0,0,1-1-3.4,12.26,12.26,0,0,0-.06-9,2.09,2.09,0,0,1,1-2.78c.43-.21,1.33-.6,1-.86-4.24-3.06.5-4.76,1-7.08a14.08,14.08,0,0,0,.11-2.16c4.08-1.58,8.46-1.66,12.69-2.47q14.89-2.86,29.79-5.64C1110,658.46,1111.46,658.46,1112.89,658.34Z" transform="translate(-28.08 -20.73)"/><path class="cls-27" d="M254.79,624.25l1,.46c.58.56,1.54.28,2.07.93,9.57,3.75,19.1,7.56,28.43,11.87-3.64,6-6.75,12.1-8.33,19-1.08,4.69-3.61,9-5.83,13.25-2,3.85-3.43,7.85-3.35,12.27a167.73,167.73,0,0,1-29.37-9.66c-3.75-1-3.19-3.73-2.51-6.48,1.41-5.64,4.1-10.79,6.26-16.15C246.68,641.11,250.16,632.42,254.79,624.25Z" transform="translate(-28.08 -20.73)"/><path class="cls-28" d="M191.33,650.89c-.85-2.49-.38-4.82.27-7.35,2.21-8.62,7-16.16,10-24.45,1.88-5.23,4.73-10.1,6.05-15.57.48-2,1.11-3.88,3.66-4l0,0a1.86,1.86,0,0,0,1.48,1,.58.58,0,0,1,.7.45,3.29,3.29,0,0,1,1,.78l.09.06a2.74,2.74,0,0,0,1.22.93l-.07-.06c.48.94,1.57.68,2.29,1.14l18.27,11c-6.34,11.07-10.84,22.91-14.71,35a51,51,0,0,1-6.17,13,117.08,117.08,0,0,1-20.45-9.95c-.53-.69-1.53-.48-2.11-1.09l0,0c-.39-.39-.69-.91-1.36-.84Z" transform="translate(-28.08 -20.73)"/><path class="cls-16" d="M268.8,682.07c-1.09-1.13-2.08-2-1.39-4.06a111.83,111.83,0,0,1,5.51-12.83,126.18,126.18,0,0,0,4.94-13.47c1.7-5.05,2.63-11.3,8.45-14.2,7.35,1.7,14.16,5,21.4,7.07,2.39.68,4.66,1.75,7,2.64-5.19,6.78-8.13,14.74-11.2,22.53-2.55,6.47-5.69,12.84-6.46,19.92A203.93,203.93,0,0,1,268.8,682.07Z" transform="translate(-28.08 -20.73)"/><path class="cls-29" d="M215.35,662.79a4.66,4.66,0,0,1,.57-4.11c3.87-6,5.29-12.83,7.44-19.46,1.61-4.93,4.12-9.57,6.2-14.35.85-2,2.11-3.74,2.37-6a4.49,4.49,0,0,1,4.3-4.12c6.3,2.94,12.56,6,18.56,9.49-.07,2,0,4-1.19,5.72-3.51,5.22-5.39,11.23-7.71,17-2.73,6.74-6.14,13.22-7.93,20.38a4.63,4.63,0,0,0,1.47,5.1c-6.06-1.52-11.69-4.17-17.36-6.71-.58-.51-1.53-.26-2-1l-.14-.06c-.6-.58-1.55-.4-2.16-1h0c-.61-.71-1.55-.6-2.31-.93Z" transform="translate(-28.08 -20.73)"/><path class="cls-30" d="M297,689.67c-2-3.41-.59-7.13.87-9.67,2.81-4.91,3.83-10.37,6-15.44,1.9-4.33,5.26-8,5.58-13.23.13-2.08,2.59-3.78,5.17-4.11a.68.68,0,0,1,.87.34c.63.51,1.55.28,2.15.86,6.2,1.6,11.73,4.77,17.41,7.57,2.17,2.9.55,5.64-.75,8-5.31,9.86-8.46,20.47-11.29,31.21a111,111,0,0,1-20.62-4.48c-1.12-.83-2.57-.31-3.75-.88A1.54,1.54,0,0,1,297,689.67Z" transform="translate(-28.08 -20.73)"/><path class="cls-31" d="M323.09,695.25c-.5-1.32-1.27-2.53-.67-4.1,3.28-8.49,4.88-17.58,9.78-25.52,1.69-2.76,3.38-6,2.93-9.64l1.09.33a3.45,3.45,0,0,0,1.34.7,82.15,82.15,0,0,1,18.27,7.49.61.61,0,0,0,.95.41,2.14,2.14,0,0,1,2.1,1c-.87,8.45-5.82,15.42-8.55,23.21-1.22,3.5-2,7.31-4.39,10.38A132.46,132.46,0,0,1,323.09,695.25Z" transform="translate(-28.08 -20.73)"/><path class="cls-32" d="M345.94,699.47a8.69,8.69,0,0,1,.1-2.66,332.4,332.4,0,0,1,12.84-30.93c8,3.19,15.46,7.5,23,11.55,1.58,1.69,2.42,3.54,1.27,5.83-3.31,6.64-4.88,13.94-7.92,20.68A188.73,188.73,0,0,1,345.94,699.47Z" transform="translate(-28.08 -20.73)"/><path class="cls-33" d="M375.27,703.94c-1-1.59-.37-3.19.24-4.6,2.32-5.37,3.4-11.24,6.41-16.31,1.18-2,.61-3.74,0-5.6,10.44,4.51,21.26,8.13,31.39,13.38,2.24,1.72,2.06,3.75,1.11,6.15-1.44,3.62-3.53,7.08-3.31,11.2A253.93,253.93,0,0,1,375.27,703.94Z" transform="translate(-28.08 -20.73)"/><path class="cls-34" d="M411.11,708.16c-1-1.13-2.48-1.9-1.3-4,1.31-2.29,1.93-5,3.25-7.25a6.54,6.54,0,0,0,.25-6.13l2.32.51a4.55,4.55,0,0,1,1.07.5l2.16.52a9.61,9.61,0,0,1,1.11.56c15.52,4.83,30.74,10.33,44.89,19.19-1.1,1.09-2.39.6-3.47.53-13.15-.87-26.33-1.44-39.39-3.3-3.21-1.51-6.75.28-10-1l-.49.11Z" transform="translate(-28.08 -20.73)"/><path class="cls-35" d="M53.48,442.78l1.5,1.59a11.35,11.35,0,0,1-4.64,4.29L50,448.1a5.31,5.31,0,0,0,.41-1.22C50.71,445,52.38,444.09,53.48,442.78Z" transform="translate(-28.08 -20.73)"/><path class="cls-33" d="M412,708.3c3.33.24,6.82-1.06,10,1C418.63,709.36,415.26,709.52,412,708.3Z" transform="translate(-28.08 -20.73)"/><path class="cls-36" d="M504.61,91.17c-.82.18-1.73.1-2.25,1a8.38,8.38,0,0,1-3.2-2.1.85.85,0,0,1,0-1.42A10.45,10.45,0,0,1,504.61,91.17Z" transform="translate(-28.08 -20.73)"/><path class="cls-12" d="M653.26,729.17c-1.78,1.39-3.8.6-5.72.63C649.32,728.45,651.32,729.1,653.26,729.17Z" transform="translate(-28.08 -20.73)"/><path class="cls-37" d="M1323.75,426.83l1-1.15a4,4,0,0,1,2,3.4l.11-.09A4.47,4.47,0,0,1,1323.75,426.83Z" transform="translate(-28.08 -20.73)"/><path class="cls-17" d="M1245.44,670.06c1.28-1.43,2.94-.84,4.49-.86A6.38,6.38,0,0,1,1245.44,670.06Z" transform="translate(-28.08 -20.73)"/><path class="cls-17" d="M1238.92,671.15c1.29-1.44,3-.84,4.52-.85A6.51,6.51,0,0,1,1238.92,671.15Z" transform="translate(-28.08 -20.73)"/><path class="cls-14" d="M831.54,754.8c1.29-1.44,3-.86,4.53-.86A6.43,6.43,0,0,1,831.54,754.8Z" transform="translate(-28.08 -20.73)"/><path class="cls-5" d="M264.48,699.49c-1.5-.16-3.31.69-4.25-1.29C261.68,698.52,263.29,698.33,264.48,699.49Z" transform="translate(-28.08 -20.73)"/><path class="cls-9" d="M587.11,807c1.17-1.42,2.57-1.23,4-.6A6.29,6.29,0,0,1,587.11,807Z" transform="translate(-28.08 -20.73)"/><path class="cls-5" d="M255.72,805c1.52.09,3.26-.65,4.33,1.14C258.54,806,257,806.12,255.72,805Z" transform="translate(-28.08 -20.73)"/><path class="cls-12" d="M645.78,796.08c1.29-1.44,3-.85,4.52-.86A6.5,6.5,0,0,1,645.78,796.08Z" transform="translate(-28.08 -20.73)"/><path class="cls-13" d="M908.57,694.36c-.89,1-2.08.8-3.23.74A3.61,3.61,0,0,1,908.57,694.36Z" transform="translate(-28.08 -20.73)"/><path class="cls-38" d="M499.21,88.61c0,.47,0,1,0,1.42-1.09-.43-2.23-.81-2.55-2.15a1.06,1.06,0,0,1,1.52,0Z" transform="translate(-28.08 -20.73)"/><path class="cls-5" d="M257.11,697.24c-1.28.07-2.63.4-3.46-1A4.32,4.32,0,0,1,257.11,697.24Z" transform="translate(-28.08 -20.73)"/><path class="cls-16" d="M298.72,689.89c1.33-.06,2.74-.44,3.75.88A4.18,4.18,0,0,1,298.72,689.89Z" transform="translate(-28.08 -20.73)"/><path class="cls-5" d="M252.17,804c1.3-.07,2.69-.42,3.56,1A4.35,4.35,0,0,1,252.17,804Z" transform="translate(-28.08 -20.73)"/><path class="cls-13" d="M909.76,737.44c.87-1.2,2.13-1,3.34-.91A5.21,5.21,0,0,1,909.76,737.44Z" transform="translate(-28.08 -20.73)"/><path class="cls-39" d="M498.13,87.86l-1.52,0c-.48-.11-.67-.54-.28-.73C497.07,86.79,497.63,87.34,498.13,87.86Z" transform="translate(-28.08 -20.73)"/><path class="cls-40" d="M1132.69,242.18,1131,242c.51-.92,1.25-1.19,2.1-.54C1133.45,241.73,1133.18,242.11,1132.69,242.18Z" transform="translate(-28.08 -20.73)"/><path class="cls-15" d="M130,503.92c-1.16-.46-1.23-1.43-1.14-2.47A2.55,2.55,0,0,1,130,503.92Z" transform="translate(-28.08 -20.73)"/><path class="cls-22" d="M956.47,727.64a2.39,2.39,0,0,1,2.41-.84A2,2,0,0,1,956.47,727.64Z" transform="translate(-28.08 -20.73)"/><path class="cls-15" d="M127.52,498.57a2.18,2.18,0,0,1-.9-2.33A2.47,2.47,0,0,1,127.52,498.57Z" transform="translate(-28.08 -20.73)"/><path class="cls-15" d="M126.67,496.32c-1.12-.43-1.23-1.32-1-2.33A2.61,2.61,0,0,1,126.67,496.32Z" transform="translate(-28.08 -20.73)"/><path class="cls-17" d="M1249.68,639c-.71.92-1.38.88-2-.07Z" transform="translate(-28.08 -20.73)"/><path class="cls-28" d="M217.74,663.72a2.14,2.14,0,0,1,2.16,1A2.21,2.21,0,0,1,217.74,663.72Z" transform="translate(-28.08 -20.73)"/><path class="cls-16" d="M317.72,648.42a2.17,2.17,0,0,1-2.15-.86A2.33,2.33,0,0,1,317.72,648.42Z" transform="translate(-28.08 -20.73)"/><path class="cls-41" d="M49.33,449.68c-.22.8-.81,1.29-1.51.91s-.18-.77.35-1A.72.72,0,0,1,49.33,449.68Z" transform="translate(-28.08 -20.73)"/><path class="cls-9" d="M591.78,733.07H589A1.86,1.86,0,0,1,591.78,733.07Z" transform="translate(-28.08 -20.73)"/><path class="cls-25" d="M192.79,651.75a2.06,2.06,0,0,1,2.11,1.09A2.31,2.31,0,0,1,192.79,651.75Z" transform="translate(-28.08 -20.73)"/><path class="cls-42" d="M49.33,449.68l-1.16-.05c.08-.59.32-1.05,1-1.07a2.45,2.45,0,0,1,.94-.36l.22.46A1.31,1.31,0,0,1,49.33,449.68Z" transform="translate(-28.08 -20.73)"/><path class="cls-25" d="M218,603.81c-1,.09-1.89,0-2.29-1.14A2.78,2.78,0,0,1,218,603.81Z" transform="translate(-28.08 -20.73)"/><path class="cls-28" d="M215.4,662.78a1.9,1.9,0,0,1,2.31.93C216.81,663.72,215.92,663.72,215.4,662.78Z" transform="translate(-28.08 -20.73)"/><path class="cls-14" d="M828.28,755.89a2.24,2.24,0,0,1,2.17-.93A2.24,2.24,0,0,1,828.28,755.89Z" transform="translate(-28.08 -20.73)"/><path class="cls-28" d="M220,664.75a2.2,2.2,0,0,1,2,1A2,2,0,0,1,220,664.75Z" transform="translate(-28.08 -20.73)"/><path class="cls-5" d="M247.88,802.85a2.32,2.32,0,0,1,2.43.82A2.43,2.43,0,0,1,247.88,802.85Z" transform="translate(-28.08 -20.73)"/><path class="cls-8" d="M515,817h3A2.05,2.05,0,0,1,515,817Z" transform="translate(-28.08 -20.73)"/><path class="cls-26" d="M1061.76,667.94c-.5,1.13-1.18,1.26-2,.35Z" transform="translate(-28.08 -20.73)"/><path class="cls-24" d="M190.4,583.33c-.88-.08-1.64-.34-1.85-1.34C189.4,582.11,190.16,582.37,190.4,583.33Z" transform="translate(-28.08 -20.73)"/><path class="cls-29" d="M257.88,625.64a2.13,2.13,0,0,1-2.07-.93A2,2,0,0,1,257.88,625.64Z" transform="translate(-28.08 -20.73)"/><path class="cls-5" d="M260.29,698.23a2,2,0,0,1-2.32-.78A2.16,2.16,0,0,1,260.29,698.23Z" transform="translate(-28.08 -20.73)"/><path class="cls-5" d="M267.91,700.51a2.27,2.27,0,0,1-2.3-.78A2.31,2.31,0,0,1,267.91,700.51Z" transform="translate(-28.08 -20.73)"/><path class="cls-5" d="M145.34,531c-1.21-.26-1.41-1.16-1.39-2.2A3,3,0,0,1,145.34,531Z" transform="translate(-28.08 -20.73)"/><path class="cls-15" d="M131.1,506.06c-1.16-.33-1.3-1.22-1.22-2.23A2.45,2.45,0,0,1,131.1,506.06Z" transform="translate(-28.08 -20.73)"/><path class="cls-14" d="M756.58,718c-.61,1-1.31,1.21-2.13.24Z" transform="translate(-28.08 -20.73)"/><path class="cls-43" d="M1326.85,429.08l.78.32-.47.38L1327,429Z" transform="translate(-28.08 -20.73)"/><path class="cls-44" d="M50.12,448.2c-.31.11-.63.23-.94.36a2.08,2.08,0,0,1,1.23-1.68C50.31,447.32,50.22,447.76,50.12,448.2Z" transform="translate(-28.08 -20.73)"/><path class="cls-4" d="M110.18,611.51l-1.05-1A1.29,1.29,0,0,1,110.18,611.51Z" transform="translate(-28.08 -20.73)"/><path class="cls-4" d="M109.08,610.44l-1-1.12A1.15,1.15,0,0,1,109.08,610.44Z" transform="translate(-28.08 -20.73)"/><path class="cls-4" d="M107,608.24l-1.08-1.14A1.32,1.32,0,0,1,107,608.24Z" transform="translate(-28.08 -20.73)"/><path class="cls-25" d="M191.38,650.89a1.36,1.36,0,0,1,1.36.84A1.16,1.16,0,0,1,191.38,650.89Z" transform="translate(-28.08 -20.73)"/><path class="cls-30" d="M337.56,657c-.44-.24-.89-.47-1.34-.7A1.16,1.16,0,0,1,337.56,657Z" transform="translate(-28.08 -20.73)"/><path class="cls-4" d="M108.08,609.32l-1.1-1.09A1.22,1.22,0,0,1,108.08,609.32Z" transform="translate(-28.08 -20.73)"/><path class="cls-32" d="M356.78,664.92c-.69.72-.87.26-.95-.41A1,1,0,0,1,356.78,664.92Z" transform="translate(-28.08 -20.73)"/><path class="cls-24" d="M192.73,585.44l-1.06-.87A.93.93,0,0,1,192.73,585.44Z" transform="translate(-28.08 -20.73)"/><path class="cls-24" d="M188.63,582.07a1.46,1.46,0,0,1-1.21-1.16A1.56,1.56,0,0,1,188.63,582.07Z" transform="translate(-28.08 -20.73)"/><path class="cls-4" d="M111.35,612.58l-1.12-1A1.11,1.11,0,0,1,111.35,612.58Z" transform="translate(-28.08 -20.73)"/><path class="cls-24" d="M195.09,587.55l-1.21-1A1.31,1.31,0,0,1,195.09,587.55Z" transform="translate(-28.08 -20.73)"/><path class="cls-23" d="M163.47,556.09l-1.06-1.16A1.33,1.33,0,0,1,163.47,556.09Z" transform="translate(-28.08 -20.73)"/><path class="cls-23" d="M164.42,557.23c-.32-.38-.63-.76-.95-1.13A1.06,1.06,0,0,1,164.42,557.23Z" transform="translate(-28.08 -20.73)"/><path class="cls-12" d="M645.75,730c-.42.79-.76.67-1.07-.08Z" transform="translate(-28.08 -20.73)"/><path class="cls-15" d="M131.66,507.21l-.65-1.27C131.65,506.14,131.72,506.64,131.66,507.21Z" transform="translate(-28.08 -20.73)"/><path class="cls-24" d="M191.42,584.41l-.85-.86Z" transform="translate(-28.08 -20.73)"/><path class="cls-33" d="M416.7,691.82l-1.07-.5A.8.8,0,0,1,416.7,691.82Z" transform="translate(-28.08 -20.73)"/><path class="cls-25" d="M212.77,600.51a1.62,1.62,0,0,1-1.48-1A1.62,1.62,0,0,1,212.77,600.51Z" transform="translate(-28.08 -20.73)"/><path class="cls-33" d="M420,692.9l-1.11-.56A.84.84,0,0,1,420,692.9Z" transform="translate(-28.08 -20.73)"/><path class="cls-24" d="M193.82,586.53l-1-1C193.45,585.53,193.71,586,193.82,586.53Z" transform="translate(-28.08 -20.73)"/><path class="cls-26" d="M1064,667.1c-.26.49-.58.64-1,.16A.78.78,0,0,1,1064,667.1Z" transform="translate(-28.08 -20.73)"/><path class="cls-15" d="M128.2,499.56c-.22-.3-.43-.61-.64-.91A.79.79,0,0,1,128.2,499.56Z" transform="translate(-28.08 -20.73)"/><path class="cls-25" d="M214.43,601.74l-1-.78A.83.83,0,0,1,214.43,601.74Z" transform="translate(-28.08 -20.73)"/><path class="cls-3" d="M184.55,666.78a1.66,1.66,0,0,1-1.51-1A1.54,1.54,0,0,1,184.55,666.78Z" transform="translate(-28.08 -20.73)"/><path class="cls-25" d="M215.74,602.73a1.41,1.41,0,0,1-1.22-.93A1.19,1.19,0,0,1,215.74,602.73Z" transform="translate(-28.08 -20.73)"/><path class="cls-16" d="M701.17,724.56c-.3.56-.65.68-1.07.12Z" transform="translate(-28.08 -20.73)"/><path class="cls-8" d="M438.26,730.1c-.39.55-.74.51-1.06-.05Z" transform="translate(-28.08 -20.73)"/></svg>